<svg xmlns="http://www.w3.org/2000/svg" xmlns:xlink="http://www.w3.org/1999/xlink" viewBox="0 0 288 242" class="design-iconfont">
  <defs>
    <linearGradient x1="49.9999076%" y1=".00104332%" x2="49.9999076%" y2="100.000652%" id="4xk1kagg4__gnpgg20eha">
      <stop stop-color="#360C56" offset=".00004529%"/>
      <stop stop-color="#1C042E" stop-opacity="0" offset="100%"/>
    </linearGradient>
    <linearGradient x1="49.9999076%" y1=".00104332%" x2="49.9999076%" y2="100.000652%" id="4xk1kagg4__qiiatbur8b">
      <stop stop-color="#360C56" offset=".00004529%"/>
      <stop stop-color="#1C042E" stop-opacity="0" offset="100%"/>
    </linearGradient>
    <linearGradient x1="49.9999076%" y1=".00104332%" x2="49.9999076%" y2="100.000652%" id="4xk1kagg4__7oa2fy657c">
      <stop stop-color="#360C56" offset=".00004529%"/>
      <stop stop-color="#1C042E" stop-opacity="0" offset="100%"/>
    </linearGradient>
    <linearGradient x1="50%" y1="0%" x2="50%" y2="100%" id="4xk1kagg4__7di05nff0e">
      <stop stop-color="#43106A" offset=".00004529%"/>
      <stop stop-color="#1C042E" stop-opacity=".25090144" offset="100%"/>
    </linearGradient>
    <linearGradient x1="71.7078841%" y1="60.754127%" x2="24.1915577%" y2="31.3716367%" id="4xk1kagg4__rg7ymzjdvf">
      <stop stop-color="#1C032D" stop-opacity="0" offset="0%"/>
      <stop stop-color="#6C2F9C" stop-opacity=".42946897" offset="100%"/>
    </linearGradient>
    <linearGradient x1="71.7078841%" y1="64.9438859%" x2="24.1915577%" y2="24.1141111%" id="4xk1kagg4__jw7vj81z2h">
      <stop stop-color="#1C032D" stop-opacity="0" offset="0%"/>
      <stop stop-color="#6C2F9C" stop-opacity=".42946897" offset="100%"/>
    </linearGradient>
    <linearGradient x1="71.7078841%" y1="66.3683558%" x2="24.1915577%" y2="21.6466357%" id="4xk1kagg4__jjrrlfpg4i">
      <stop stop-color="#1C032D" stop-opacity="0" offset="0%"/>
      <stop stop-color="#6C2F9C" stop-opacity=".42946897" offset="100%"/>
    </linearGradient>
    <linearGradient x1="71.7078841%" y1="57.1878046%" x2="24.1915577%" y2="37.5492418%" id="4xk1kagg4__xxx43vycgj">
      <stop stop-color="#1C032D" stop-opacity="0" offset="0%"/>
      <stop stop-color="#6C2F9C" stop-opacity=".42946897" offset="100%"/>
    </linearGradient>
    <linearGradient x1="50%" y1="0%" x2="50%" y2="100%" id="4xk1kagg4__8vog4z9zzk">
      <stop stop-color="#58257F" offset="0%"/>
      <stop stop-color="#1C042E" offset="100%"/>
    </linearGradient>
    <linearGradient x1="50%" y1="0%" x2="50%" y2="100%" id="4xk1kagg4__c3cevl2z3l">
      <stop stop-color="#58257F" offset="0%"/>
      <stop stop-color="#1C042E" offset="100%"/>
    </linearGradient>
    <linearGradient x1="50.9923847%" y1="95.7710861%" x2="50%" y2="-7.94675026%" id="4xk1kagg4__vrvq5hm3nm">
      <stop stop-color="#79158A" offset="0%"/>
      <stop stop-color="#F79CFF" offset="100%"/>
    </linearGradient>
    <linearGradient x1="7.7878449%" y1="88.2969446%" x2="93.131094%" y2="6.95348616%" id="4xk1kagg4__t7rmalxm4n">
      <stop stop-color="#79158A" offset="0%"/>
      <stop stop-color="#F79CFF" offset="100%"/>
    </linearGradient>
    <linearGradient x1="22.9488208%" y1="27.0194725%" x2="88.6366788%" y2="77.5112155%" id="4xk1kagg4__8w8sbn8fwo">
      <stop stop-color="#6A23A1" offset=".00004475%"/>
      <stop stop-color="#810D7F" offset="100%"/>
    </linearGradient>
    <linearGradient x1="22.9488208%" y1="8.6032553%" x2="88.6366788%" y2="99.5582516%" id="4xk1kagg4__yq3ahyx59p">
      <stop stop-color="#6A23A1" offset=".00004475%"/>
      <stop stop-color="#810D7F" offset="100%"/>
    </linearGradient>
    <linearGradient x1="22.9488208%" y1="28.862422%" x2="88.6366788%" y2="75.3049224%" id="4xk1kagg4__66jrhdz0aq">
      <stop stop-color="#6A23A1" offset=".00004475%"/>
      <stop stop-color="#810D7F" offset="100%"/>
    </linearGradient>
    <linearGradient x1="47.8231728%" y1="5.31273888%" x2="53.1091205%" y2="103.497504%" id="4xk1kagg4__1sgml80tgr">
      <stop stop-color="#6A23A1" offset=".00004475%"/>
      <stop stop-color="#810D7F" offset="100%"/>
    </linearGradient>
    <linearGradient x1="18.6794132%" y1="89.6631007%" x2="83.7628683%" y2="0%" id="4xk1kagg4__gpuglktp4s">
      <stop stop-color="#79158A" offset="0%"/>
      <stop stop-color="#F79CFF" offset="100%"/>
    </linearGradient>
    <linearGradient x1="10.290859%" y1="85.3070854%" x2="100%" y2="17.5992797%" id="4xk1kagg4__0jsm89xhwt">
      <stop stop-color="#79158A" offset="0%"/>
      <stop stop-color="#F79CFF" offset="100%"/>
    </linearGradient>
    <linearGradient x1="22.9488208%" y1="31.409033%" x2="88.6366788%" y2="72.2562384%" id="4xk1kagg4__pd2a79holu">
      <stop stop-color="#6A23A1" offset=".00004475%"/>
      <stop stop-color="#810D7F" offset="100%"/>
    </linearGradient>
    <linearGradient x1="22.9488208%" y1="15.1167321%" x2="88.6366788%" y2="91.760621%" id="4xk1kagg4__o7f1ebalkv">
      <stop stop-color="#6A23A1" offset=".00004475%"/>
      <stop stop-color="#810D7F" offset="100%"/>
    </linearGradient>
    <linearGradient x1="50%" y1="0%" x2="50%" y2="100%" id="4xk1kagg4__1ztwtbs1hw">
      <stop stop-color="#A91EBC" offset="0%"/>
      <stop stop-color="#7A1388" offset="100%"/>
    </linearGradient>
    <linearGradient x1="29.6895636%" y1="14.814369%" x2="71.3352368%" y2="86.946852%" id="4xk1kagg4__swrtewpg1x">
      <stop stop-color="#FFF" offset="0%"/>
      <stop stop-color="#DFEDFF" offset="100%"/>
    </linearGradient>
    <linearGradient x1="50%" y1="0%" x2="50%" y2="100%" id="4xk1kagg4__4kez3xyc7y">
      <stop stop-color="#73229F" offset="0%"/>
      <stop stop-color="#DF95FF" offset="100%"/>
    </linearGradient>
    <linearGradient x1="50%" y1="55.351316%" x2="50%" y2="94.7046698%" id="4xk1kagg4__rowvg50bhz">
      <stop stop-color="#852BAC" offset="0%"/>
      <stop stop-color="#DD74FF" offset="100%"/>
    </linearGradient>
    <linearGradient x1="50%" y1="0%" x2="50%" y2="100%" id="4xk1kagg4__t51out5uzA">
      <stop stop-color="#FB66FF" offset="0%"/>
      <stop stop-color="#6E1F9B" offset="100%"/>
    </linearGradient>
    <linearGradient x1="29.6895636%" y1="14.9054746%" x2="71.2237509%" y2="86.6585866%" id="4xk1kagg4__nuema79tcB">
      <stop stop-color="#F4DDFF" offset="0%"/>
      <stop stop-color="#CAA0EB" offset="100%"/>
    </linearGradient>
    <linearGradient x1="50%" y1="0%" x2="50%" y2="100%" id="4xk1kagg4__8ipb6qdbtC">
      <stop stop-color="#FDB8FF" offset="0%"/>
      <stop stop-color="#7924A3" offset="100%"/>
    </linearGradient>
    <linearGradient x1="50%" y1="0%" x2="50%" y2="100%" id="4xk1kagg4__3bvhiy21jD">
      <stop stop-color="#F6B8FF" offset="0%"/>
      <stop stop-color="#AD5EC7" offset="100%"/>
    </linearGradient>
    <linearGradient x1="50%" y1="0%" x2="50%" y2="100%" id="4xk1kagg4__k5337ftbbE">
      <stop stop-color="#F2B3FC" offset="0%"/>
      <stop stop-color="#BE73D4" offset="100%"/>
    </linearGradient>
    <linearGradient x1="36.7351146%" y1="72%" x2="59.9133558%" y2="34.3489362%" id="4xk1kagg4__pym0z1ydmF">
      <stop stop-color="#BC5A32" stop-opacity="0" offset="0%"/>
      <stop stop-color="#BC5A32" offset="99%"/>
    </linearGradient>
    <linearGradient x1="41.8418605%" y1="49.785554%" x2="24.027907%" y2="35.5570602%" id="4xk1kagg4__pvkw89sefG">
      <stop stop-color="#BC5A32" stop-opacity="0" offset="0%"/>
      <stop stop-color="#BC5A32" offset="99%"/>
    </linearGradient>
    <linearGradient x1="45.9404209%" y1="117.36%" x2="52.3633231%" y2="10.82%" id="4xk1kagg4__ypn4fhdeeH">
      <stop stop-color="#CC7A5E" stop-opacity="0" offset="0%"/>
      <stop stop-color="#AA5F4B" offset="92.4%"/>
    </linearGradient>
    <linearGradient x1="51.0688269%" y1="91.0391319%" x2="49.4122965%" y2="22.3446235%" id="4xk1kagg4__f80i9wgzjI">
      <stop stop-color="#FF7A00" offset=".7%"/>
      <stop stop-color="#FFB600" offset="98.3%"/>
    </linearGradient>
    <linearGradient x1="55.9146953%" y1="76.2949156%" x2="48.6053763%" y2="38.5513529%" id="4xk1kagg4__f5qawc9hiJ">
      <stop stop-color="#CC7A5E" stop-opacity="0" offset="0%"/>
      <stop stop-color="#AA5F4B" offset="92.41%"/>
    </linearGradient>
    <linearGradient x1="43.5967669%" y1="37.594359%" x2="54.5378342%" y2="61.1289368%" id="4xk1kagg4__xcd1dxk62K">
      <stop stop-color="#F5C52A" offset="29.8%"/>
      <stop stop-color="#E46C26" offset="100%"/>
    </linearGradient>
    <linearGradient x1="39.3736939%" y1="44.4959148%" x2="58.6405428%" y2="52.1763317%" id="4xk1kagg4__7pa61rqjlL">
      <stop stop-color="#6198E0" offset="0%"/>
      <stop stop-color="#84B9FF" offset="100%"/>
    </linearGradient>
    <linearGradient x1="63.5150583%" y1="31.4375237%" x2="8.18655871%" y2="102.806623%" id="4xk1kagg4__5hapsk8otM">
      <stop stop-color="#CC7A5E" stop-opacity="0" offset="0%"/>
      <stop stop-color="#AA5F4B" offset="100%"/>
    </linearGradient>
    <linearGradient x1="67.9200458%" y1="26.9892675%" x2="22.8256118%" y2="107.597354%" id="4xk1kagg4__g0mijnvosN">
      <stop stop-color="#FFF7EB" offset="0%"/>
      <stop stop-color="#F9E6C2" offset="100%"/>
    </linearGradient>
    <linearGradient x1="59.0433184%" y1="37.4013399%" x2="20.1665985%" y2="82.0694643%" id="4xk1kagg4__fr4yzfsjwP">
      <stop stop-color="#F4C12A" offset=".52174388%"/>
      <stop stop-color="#FFA819" offset="100%"/>
    </linearGradient>
    <linearGradient x1="71.7824343%" y1="20.6787149%" x2="26.5136616%" y2="84.6626506%" id="4xk1kagg4__rl9ydf1bkQ">
      <stop stop-color="#FFF8EB" offset="0%"/>
      <stop stop-color="#F9E7C2" offset="100%"/>
    </linearGradient>
    <linearGradient x1="49.8610887%" y1="50.1210102%" x2="25.2898876%" y2="50.3333712%" id="4xk1kagg4__z0xoc3mkfS">
      <stop stop-color="#EFA429" offset="0%"/>
      <stop stop-color="#F5C52A" offset="100%"/>
    </linearGradient>
    <linearGradient x1="52.773498%" y1="55.6365383%" x2="42.0079717%" y2="41.2045524%" id="4xk1kagg4__ifvjy3oriT">
      <stop stop-color="#CC7A5E" stop-opacity="0" offset=".5%"/>
      <stop stop-color="#AA5F4B" offset="92.4%"/>
    </linearGradient>
    <linearGradient x1="-5.21612955%" y1="47.3260198%" x2="94.5951008%" y2="53.0631705%" id="4xk1kagg4__nnk7453ayU">
      <stop stop-color="#FFF9EB" offset="0%"/>
      <stop stop-color="#F9E5C2" offset="100%"/>
    </linearGradient>
    <linearGradient x1="61.3985452%" y1="70.5202276%" x2="36.7321064%" y2="31.0829257%" id="4xk1kagg4__p5sur7vuwV">
      <stop stop-color="#FEA91A" offset="0%"/>
      <stop stop-color="#F4C02A" offset="100%"/>
    </linearGradient>
    <linearGradient x1="3.26140225%" y1="45.3553651%" x2="70.4191148%" y2="53.2505661%" id="4xk1kagg4__l7maww93uW">
      <stop stop-color="#FFF9EB" offset="0%"/>
      <stop stop-color="#F9E6C2" offset="100%"/>
    </linearGradient>
    <path d="M139.541379,166 C180.037822,166 216.50515,169.308829 241.995774,174.59388 C266.926536,174.760084 287,182.240244 287,191.443478 C287,198.737235 274.392068,204.948746 256.748939,207.294897 C252.538111,208.542805 247.798199,209.719061 242.591832,210.812192 C242.727362,211.5086 242.795402,212.212202 242.795402,212.921739 C242.795402,228.981219 207.939483,242 164.942529,242 C126.25888,242 94.1648326,231.462204 88.114994,217.652961 C36.4980585,213.726895 0,204.063599 0,192.765217 C0,177.983196 62.4748033,166 139.541379,166 Z" id="4xk1kagg4__btgia0q3kd"/>
    <path d="M10.4791756,4.69365102 C13.3883584,4.02348693 16.6824573,5.72560788 17.6041632,11.3278351 C18.1339315,14.5478232 16.9681476,19.68508 18.1798005,21.5418464 C19.6721864,23.8288152 22.979768,22.8898979 26.717601,22.5661619 C30.0600464,22.2766706 30.0999016,24.9953142 30.7008734,27.4914014 C31.3018453,29.9874885 31.2405467,31.7658031 29.9074034,32.4771859 C28.5742601,33.1885686 26.7514748,34.1073522 18.5399564,33.0330696 C10.3284381,31.9587871 9.56884305,30.5323447 7.62783757,26.1094741 C5.68683208,21.6602769 6.51847525,15.1453155 6.30863682,11.8808158 C6.1250282,7.98447738 7.41768147,5.39890181 10.4791756,4.69365102 Z" id="4xk1kagg4__wnvcybyzgO"/>
  </defs>
  <g fill="none" fill-rule="evenodd">
    <g transform="translate(.209945)">
      <path d="M245.541667,157.707171 C245.597222,157.930279 245.666667,158.167331 245.75,158.418327 L245.916667,159.087649 C245.972222,159.310757 246,159.492032 246,159.631474 C246,160.412351 245.791667,161.10259 245.375,161.702191 C244.958333,162.301793 244.416666,162.741036 243.75,163.01992 C243.5,163.047809 243.236111,163.061753 242.958333,163.061753 C242.736111,163.089641 242.486111,163.103586 242.208333,163.103586 L241.416667,163.103586 L234.916667,163.187251 L234.916667,170.173307 C234.916667,171.205179 234.9375,172.244024 234.979167,173.289841 C235.020833,174.335657 235.069444,175.276892 235.125,176.113546 C235.180556,177.11753 235.25,178.079681 235.333334,179 L229.333333,179 L229.458333,177.368526 C229.486111,176.727092 229.513889,175.855578 229.541667,174.753984 C229.569444,173.65239 229.583333,172.181275 229.583333,170.340637 L229.583333,163.940239 C229.111111,164.358566 228.583333,164.567729 228,164.567729 C227.527778,164.567729 227.118056,164.456175 226.770833,164.233068 C226.423611,164.00996 226.138889,163.703187 225.916667,163.312749 L221.208333,163.061753 C220.291667,162.838645 219.527778,162.371514 218.916667,161.660359 C218.305555,160.949203 218,160.105578 218,159.129482 C218,158.962151 218.013889,158.808765 218.041667,158.669323 C218.069444,158.52988 218.111111,158.390438 218.166666,158.250996 L219.208333,155.824701 C219.263889,155.211155 219.4375,154.639442 219.729167,154.109562 C220.020833,153.579681 220.388889,153.119522 220.833333,152.729084 L227.375,140.555777 L227.416667,140.555777 C227.944444,139.579681 228.569444,138.743028 229.291667,138.045817 C230.013889,137.348606 230.944444,137 232.083333,137 C233.083333,137 233.979167,137.26494 234.770833,137.794821 C235.5625,138.324701 236.152778,139.021912 236.541666,139.886454 L241.791666,150.219124 C242.736111,150.553785 243.513889,151.139442 244.125,151.976096 C244.736111,152.812749 245.041667,153.7749 245.041667,154.86255 C245.041667,155.308765 244.972222,155.782868 244.833333,156.284861 L245.541667,157.707171 Z" fill="url(#4xk1kagg4__gnpgg20eha)" fill-rule="nonzero"/>
      <path d="M72.4135671,161.762948 C72.4592022,161.943559 72.5162457,162.135458 72.584698,162.338645 L72.721603,162.880478 C72.7672377,163.061089 72.7900552,163.207835 72.7900552,163.320717 C72.7900552,163.952855 72.6189243,164.51162 72.2766625,164.997012 C71.9344003,165.482404 71.4894598,165.837981 70.9418411,166.063745 C70.7364839,166.086321 70.5197178,166.09761 70.2915434,166.09761 C70.1090037,166.120186 69.9036465,166.131474 69.675472,166.131474 L69.0251743,166.131474 L63.6858885,166.199203 L63.6858885,171.854582 C63.6858885,172.689907 63.7030016,173.530876 63.737228,174.37749 C63.7714539,175.224104 63.8113846,175.986056 63.8570194,176.663347 C63.9026545,177.476096 63.959698,178.25498 64.0281507,179 L59.0995789,179 L59.2022575,177.679283 C59.2250751,177.160027 59.2478927,176.454515 59.2707102,175.562749 C59.2935274,174.670983 59.3049362,173.48008 59.3049362,171.99004 L59.3049362,166.808765 C58.9170392,167.14741 58.4835075,167.316733 58.0043411,167.316733 C57.6164442,167.316733 57.2798867,167.226428 56.9946684,167.045817 C56.7094501,166.865206 56.4755713,166.616866 56.2930316,166.300797 L52.425472,166.09761 C51.6724957,165.916999 51.0450156,165.538845 50.5430316,164.963147 C50.0410472,164.38745 49.7900552,163.704515 49.7900552,162.914343 C49.7900552,162.778884 49.801464,162.654714 49.8242816,162.541833 C49.8470988,162.428951 49.8813251,162.316069 49.9269598,162.203187 L50.7826148,160.239044 C50.8282495,159.742364 50.9708589,159.279548 51.2104421,158.850598 C51.4500253,158.421647 51.7523568,158.049137 52.1174362,157.733068 L57.490948,147.878486 L57.5251743,147.878486 C57.958706,147.088313 58.4720988,146.411023 59.065353,145.846614 C59.6586068,145.282205 60.4229915,145 61.3585075,145 C62.1799362,145 62.9157993,145.214475 63.566097,145.643426 C64.2163944,146.072377 64.7012656,146.636786 65.0207098,147.336653 L69.3332098,155.701195 C70.1090037,155.972112 70.7478927,156.446215 71.2498766,157.123506 C71.7518606,157.800797 72.002853,158.579681 72.002853,159.460159 C72.002853,159.821381 71.9458091,160.205179 71.8317217,160.611554 L72.4135671,161.762948 Z" fill="url(#4xk1kagg4__qiiatbur8b)" fill-rule="nonzero"/>
      <path d="M229.965092,28.2396508 L229.965092,160.960373 L56.6190218,160.960373 C56.9072314,94.9590833 57.1754264,84.8093353 57.4676389,18.7841073 L96.2918748,18.7841073 C96.3639272,30.5576554 96.3639272,35.6724262 96.2918748,35.8639309 L96.2918748,35.887869 C96.2918748,35.887869 96.3399097,35.8639309 96.3639272,35.8399928 L96.3639272,35.7681785 C96.3639272,32.2931665 99.1699679,29.4964003 102.656504,29.4964003 C106.143039,29.4964003 108.94908,32.2931665 108.94908,35.7681785 L108.94908,39.4825714 L136.685252,39.4825714 L136.685252,8 L161.567348,8 L161.567348,53.3786297 C161.54333,53.474382 161.54333,53.5461963 161.54333,53.6459383 L161.54333,68.9144468 C161.54333,71.1566475 163.356649,72.9679626 165.610288,72.9679626 C167.835907,72.9679626 169.653228,71.1606371 169.653228,68.9144468 L169.653228,57.0212083 C177.470914,56.9972702 183.135033,56.9733321 186.885761,56.9733321 C190.636489,56.9733321 192.477828,56.9972702 192.64595,57.0212083 C193.25039,56.949394 192.64595,47.8050456 192.64595,47.8050456 L204.482559,47.8050456 L204.482559,58.637029 C204.482559,60.2767879 205.815528,61.6053516 207.460725,61.6053516 C209.105921,61.6053516 210.438891,60.2767879 210.438891,58.637029 L210.438891,28.2396508 L229.965092,28.2396508 Z" fill="url(#4xk1kagg4__7oa2fy657c)" fill-rule="nonzero"/>
      <g opacity=".6">
        <g fill="#481C69" fill-rule="nonzero">
          <path d="M175.134279 146.99999990999999A3.13427948 3.12392009 0 1 0 175.134279 153.24784009A3.13427948 3.12392009 0 1 0 175.134279 146.99999990999999Z" transform="translate(45.112471 16.571064)"/>
          <path d="M3.13427948 75.00000001000001A3.13427948 3.12392009 0 1 0 3.13427948 81.24784019A3.13427948 3.12392009 0 1 0 3.13427948 75.00000001000001Z" transform="translate(45.112471 16.571064)"/>
          <path d="M145.134279 0A3.13427948 3.12392009 0 1 0 145.134279 6.24784018A3.13427948 3.12392009 0 1 0 145.134279 0Z" transform="translate(45.112471 16.571064)"/>
        </g>
        <g fill="#481C69" fill-rule="nonzero">
          <path d="M141.663392,9.29595632 C139.093523,9.29595632 137,7.21334293 137,4.64797816 C137,2.08261339 139.08952,0 141.663392,0 C144.237263,0 146.326783,2.08261339 146.326783,4.64797816 C146.326783,7.21334293 144.233261,9.29595632 141.663392,9.29595632 Z M141.663392,2.58531317 C140.522562,2.58531317 139.593886,3.51091913 139.593886,4.64797816 C139.593886,5.7850372 140.522562,6.71064315 141.663392,6.71064315 C142.804221,6.71064315 143.732897,5.7850372 143.732897,4.64797816 C143.732897,3.51091913 142.804221,2.58531317 141.663392,2.58531317 Z" transform="translate(108.98547 65.024508)"/>
          <path d="M4.66339156,126.295956 C2.09352256,126.295956 0,124.213343 0,121.647978 C0,119.082613 2.08951965,117 4.66339156,117 C7.23726346,117 9.32678311,119.082613 9.32678311,121.647978 C9.32678311,124.213343 7.23326055,126.295956 4.66339156,126.295956 Z M4.66339156,119.585313 C3.52256186,119.585313 2.59388646,120.510919 2.59388646,121.647978 C2.59388646,122.785037 3.52256186,123.710643 4.66339156,123.710643 C5.80422125,123.710643 6.73289665,122.785037 6.73289665,121.647978 C6.73289665,120.510919 5.80422125,119.585313 4.66339156,119.585313 Z" transform="translate(108.98547 65.024508)"/>
          <path d="M34.6633916,156.295956 C32.0935226,156.295956 30,154.213343 30,151.647978 C30,149.082613 32.0895197,147 34.6633916,147 C37.2372635,147 39.3267831,149.082613 39.3267831,151.647978 C39.3267831,154.213343 37.2332606,156.295956 34.6633916,156.295956 Z M34.6633916,149.585313 C33.5225619,149.585313 32.5938865,150.510919 32.5938865,151.647978 C32.5938865,152.785037 33.5225619,153.710643 34.6633916,153.710643 C35.8042213,153.710643 36.7328967,152.785037 36.7328967,151.647978 C36.7328967,150.510919 35.8042213,149.585313 34.6633916,149.585313 Z" transform="translate(108.98547 65.024508)"/>
        </g>
        <path d="M10.4195779,2.83267339 L1.42103348,2.83267339 C0.636462882,2.83267339 0,2.19831413 0,1.41633669 L0,1.41633669 C0,0.634359251 0.636462882,0 1.42103348,0 L10.4195779,0 C11.2041485,0 11.8406114,0.634359251 11.8406114,1.41633669 L11.8406114,1.41633669 C11.8406114,2.19831413 11.2041485,2.83267339 10.4195779,2.83267339 Z" transform="translate(262.724553 141.554775)" fill="#481C69" fill-rule="nonzero"/>
        <path d="M0,10.3292837 L0,1.47219222 C0,0.658297336 0.660480349,0 1.47707424,0 L1.47707424,0 C2.29366812,0 2.95414847,0.658297336 2.95414847,1.47219222 L2.95414847,10.3292837 C2.95414847,11.1431785 2.29366812,11.8014759 1.47707424,11.8014759 L1.47707424,11.8014759 C0.660480349,11.8014759 0,11.1431785 0,10.3292837 Z" transform="translate(267.167784 137.070374)" fill="#481C69" fill-rule="nonzero"/>
        <path d="M6.76491994,1.83525318 L0.920669578,1.83525318 C0.412299854,1.83525318 0,1.42431605 0,0.91762659 L0,0.91762659 C0,0.410937125 0.412299854,0 0.920669578,0 L6.76491994,0 C7.27328967,0 7.68558952,0.410937125 7.68558952,0.91762659 L7.68558952,0.91762659 C7.68558952,1.42431605 7.27328967,1.83525318 6.76491994,1.83525318 Z" transform="translate(29.411234 68.24019)" fill="#481C69" fill-rule="nonzero"/>
        <path d="M0,6.70665347 L0,0.957523398 C0,0.430885529 0.428311499,0 0.96069869,0 L0.96069869,0 C1.48908297,0 1.92139738,0.426895848 1.92139738,0.957523398 L1.92139738,6.70665347 C1.92139738,7.23329134 1.49308588,7.66417687 0.96069869,7.66417687 L0.96069869,7.66417687 C0.43231441,7.66417687 0,7.23329134 0,6.70665347 Z" transform="translate(32.29333 65.323734)" fill="#481C69" fill-rule="nonzero"/>
      </g>
      <mask id="4xk1kagg4__ct7zike8ig" fill="#fff">
        <use xlink:href="#4xk1kagg4__btgia0q3kd"/>
      </mask>
      <use fill="url(#4xk1kagg4__7di05nff0e)" fill-rule="nonzero" xlink:href="#4xk1kagg4__btgia0q3kd"/>
      <path fill="url(#4xk1kagg4__rg7ymzjdvf)" fill-rule="nonzero" mask="url(#4xk1kagg4__ct7zike8ig)" d="M138.043122 245.510288L75.3632149 243.654261 60.9400101 204.453702 77.2288918 204.413036z"/>
      <path fill="url(#4xk1kagg4__jw7vj81z2h)" fill-rule="nonzero" mask="url(#4xk1kagg4__ct7zike8ig)" d="M257.5 239.808598L193.112472 259.076671 155.078968 198.020128 210.370699 194.72287z"/>
      <path fill="url(#4xk1kagg4__jjrrlfpg4i)" fill-rule="nonzero" mask="url(#4xk1kagg4__ct7zike8ig)" d="M115.5 251.808598L47.3632149 253.654261 40.6187606 204.891119 56.3534686 204.413036z"/>
      <path fill="url(#4xk1kagg4__xxx43vycgj)" fill-rule="nonzero" mask="url(#4xk1kagg4__ct7zike8ig)" d="M330.790055 235.085298L287.650346 233.396743 251.92128 201.057509 266.567886 200.717119z"/>
      <path d="M270.790055,103.896875 C270.790055,108.925 266.75723,113 261.789664,113 L246.790055,113 C242.325811,112.765625 238.790055,109.415625 238.790055,105.334375 C238.790055,102.228125 240.840856,99.553125 243.788883,98.35 C244.404748,98.1 244.845546,97.553125 244.983099,96.903125 C245.814674,92.965625 249.437965,90 253.789664,90 C256.997167,90 259.804514,91.609375 261.398887,94.03125 C261.711509,94.509375 262.214831,94.828125 262.780677,94.9125 C267.31995,95.6 270.790055,99.353125 270.790055,103.896875 Z" fill="url(#4xk1kagg4__8vog4z9zzk)" fill-rule="nonzero"/>
      <path d="M44.7900552,121.896875 C44.7900552,126.925 40.7572299,131 35.7896645,131 L20.7900552,131 C16.3258114,130.765625 12.7900552,127.415625 12.7900552,123.334375 C12.7900552,120.228125 14.8408563,117.553125 17.7888829,116.35 C18.4047485,116.1 18.8455457,115.553125 18.9830994,114.903125 C19.8146742,110.965625 23.4379646,108 27.7896645,108 C30.9971674,108 33.804514,109.609375 35.3988868,112.03125 C35.7115089,112.509375 36.2148306,112.828125 36.7806766,112.9125 C41.3199497,113.6 44.7900552,117.353125 44.7900552,121.896875 Z" fill="url(#4xk1kagg4__8vog4z9zzk)" fill-rule="nonzero"/>
      <path d="M116.224838,9.06317935 C116.224838,12.3423913 113.594734,15 110.355018,15 L100.572664,15 C97.6612006,14.8471467 95.3552726,12.6623641 95.3552726,10.0006793 C95.3552726,7.97486413 96.6927516,6.23029891 98.6153776,5.44565217 C99.0170291,5.2826087 99.3045055,4.92595109 99.3942145,4.50203804 C99.9365459,1.93410326 102.299561,0 105.137626,0 C107.229476,0 109.060354,1.04959239 110.100163,2.62907609 C110.304047,2.94089674 110.6323,3.14877717 111.00133,3.20380435 C113.961726,3.65217391 116.224838,6.09986413 116.224838,9.06317935 Z" fill="url(#4xk1kagg4__c3cevl2z3l)" fill-rule="nonzero"/>
      <g fill-rule="nonzero">
        <path d="M22.0704631,28.4503451 C21.9710207,28.4503451 21.8756512,28.4103423 21.8053348,28.339137 C21.7350183,28.2679316 21.695515,28.1713564 21.695515,28.0706568 L21.695515,3.94526342 C21.695515,3.73556738 21.863385,3.56557516 22.0704631,3.56557516 C22.2775413,3.56557516 22.4454113,3.73556738 22.4454113,3.94526342 L22.4454113,28.0706568 C22.4454113,28.1713564 22.405908,28.2679316 22.3355915,28.339137 C22.2652751,28.4103423 22.1699056,28.4503451 22.0704631,28.4503451 L22.0704631,28.4503451 Z" fill="#721C96" transform="translate(243.790055 159)"/>
        <path d="M21.8829891,1.62157114 C23.3827817,1.49247714 23.7802268,4.52238962 23.4427734,6.93720709 C23.1353159,9.0558677 22.7228729,11.865561 22.100459,11.865561 C21.4780451,11.865561 20.9606166,8.47874154 20.7731425,6.54992504 C20.5856684,4.62110855 20.3981944,1.75066519 21.8829891,1.62157114 Z" fill="url(#4xk1kagg4__vrvq5hm3nm)" transform="translate(243.790055 159)"/>
        <path d="M22.1454528,18.1607927 C21.9954453,18.1586588 21.8611339,18.0661841 21.804013,17.9257081 C21.7468921,17.7852321 21.7779587,17.6237997 21.8829891,17.5153226 L25.1150422,14.2196283 C25.2101511,14.1233171 25.3487752,14.0857033 25.4786962,14.1209557 C25.6086173,14.156208 25.7100972,14.2589708 25.7449094,14.3905344 C25.7797217,14.5220979 25.7425774,14.6624745 25.6474686,14.7587857 L22.4154155,18.05448 C22.343124,18.1251063 22.2458704,18.1634052 22.1454528,18.1607927 L22.1454528,18.1607927 Z" fill="#721C96" transform="translate(243.790055 159)"/>
        <path d="M29.1569834,10.8328089 C30.1393476,11.6453418 28.4070871,13.5210019 26.787311,14.781567 C25.3325122,15.9206318 23.4352744,17.4090099 23.0378294,17.0217278 C22.6403844,16.6344457 24.33515,14.2500034 25.3400111,12.966657 C26.3448722,11.6833106 28.1671203,10.0126822 29.1569834,10.8328089 Z" fill="url(#4xk1kagg4__t7rmalxm4n)" transform="translate(243.790055 159)"/>
        <path d="M22.2354404,22.8233648 C22.0679879,22.826359 21.9188808,22.7165343 21.8701174,22.5542863 C21.8213541,22.3920384 21.8847612,22.2167177 22.0254694,22.1247383 L27.5297084,18.4341682 C27.6405162,18.3437841 27.7922973,18.3247002 27.9215686,18.3848986 C28.0508398,18.4450969 28.1353245,18.5742038 28.1396865,18.7182197 C28.1440486,18.8622356 28.0675363,18.996343 27.9421514,19.0644508 L22.4379124,22.7550209 C22.3783846,22.7971829 22.3080439,22.8209262 22.2354404,22.8233648 L22.2354404,22.8233648 Z" fill="#721C96" transform="translate(243.790055 159)"/>
        <path d="M21.9729766,16.5281331 C21.8639746,16.5290935 21.7599559,16.4819706 21.688016,16.3990391 L17.7510603,11.766842 C17.6164595,11.607473 17.6349252,11.367784 17.7923046,11.2314815 C17.949684,11.0951791 18.1863808,11.1138783 18.3209815,11.2732473 L22.2579372,15.9054443 C22.3555274,16.017922 22.3787301,16.1779738 22.3171813,16.3141089 C22.2556325,16.4502439 22.1208261,16.5370397 21.9729766,16.5357415 L21.9729766,16.5281331 Z" fill="#721C96" transform="translate(243.790055 159)"/>
        <path d="M22.0704631,23.6890541 C21.9893355,23.6890541 21.9103963,23.6624083 21.8454943,23.6131164 C21.6580202,23.4688348 16.4687376,19.1403884 16.2437687,18.958138 C16.1244862,18.8782099 16.0605007,18.7365227 16.0788168,18.5928743 C16.0971329,18.449226 16.1945596,18.3286436 16.3299786,18.282018 C16.4653977,18.2353923 16.6152158,18.2708468 16.7162034,18.3734181 C18.215996,19.6263894 22.1454528,22.9296775 22.295432,23.0132089 C22.4257159,23.1120865 22.4780965,23.2848062 22.4250737,23.4406895 C22.3720509,23.5965728 22.2257437,23.6999904 22.0629642,23.6966478 L22.0704631,23.6890541 Z" fill="#721C96" transform="translate(243.790055 159)"/>
        <path d="M12.8392394,16.6192583 C13.746614,15.8598817 15.8988164,16.9230089 17.5860831,18.4645433 C19.0858758,19.8617962 21.1030969,21.6691124 20.7581446,22.1854885 C20.4131922,22.7018646 17.008663,21.228674 15.4113838,20.3705784 C13.8141046,19.5124829 11.7518898,17.5456976 12.8392394,16.6192583 L12.8392394,16.6192583 Z" fill="url(#4xk1kagg4__8w8sbn8fwo)" transform="translate(243.790055 159)"/>
        <path d="M14.2790403,8.50911657 C13.2216865,9.42796223 15.1714169,11.4327163 16.9711682,12.7692191 C18.5984432,13.9766278 20.7206498,15.5637248 21.1330928,15.1232864 C21.5455358,14.6828481 19.6333001,12.0857802 18.5159546,10.7416837 C17.398609,9.39758715 15.3438931,7.59027092 14.2790403,8.50911657 Z" fill="url(#4xk1kagg4__yq3ahyx59p)" transform="translate(243.790055 159)"/>
        <path d="M31.9615956,16.6344458 C32.306548,17.8950109 30.2743289,19.5504518 28.009642,20.5376413 C25.9624251,21.4261119 23.2927942,22.5955518 22.9478418,22.0184256 C22.6028895,21.4412994 25.5874769,18.69995 27.1397623,17.5077288 C28.6920477,16.3155076 31.5491527,15.1308802 31.9615956,16.6344458 L31.9615956,16.6344458 Z" fill="url(#4xk1kagg4__66jrhdz0aq)" transform="translate(243.790055 159)"/>
        <path d="M11.1294758,27.8124694 C11.0300333,27.8124694 10.9346638,27.772466 10.8643474,27.7012606 C10.794031,27.6300553 10.7545276,27.5334801 10.7545276,27.4327805 L10.7545276,2.5631981 C10.7545276,2.35350204 10.9223976,2.18350981 11.1294758,2.18350981 C11.336554,2.18350981 11.504424,2.35350204 11.504424,2.5631981 L11.504424,27.4555618 C11.4925082,27.6563121 11.3280773,27.8128311 11.1294758,27.8124694 L11.1294758,27.8124694 Z" fill="#721C96" transform="translate(243.790055 159)"/>
        <path d="M10.9120059,0.00409906817 C12.3443078,-0.124994932 12.7492518,2.8213861 12.4117985,5.12989086 C12.11184,7.21058265 11.7368918,9.93674449 11.1144779,9.93674449 C10.4920639,9.93674449 10.0121303,6.64864397 9.82465618,4.81854648 C9.63718209,2.988449 9.47970386,0.133193113 10.9120059,0.00409906817 Z" fill="url(#4xk1kagg4__1sgml80tgr)" transform="translate(243.790055 159)"/>
        <path d="M11.2044654,13.9538612 C11.0566159,13.9551593 10.9218096,13.8683636 10.8602608,13.7322285 C10.7987121,13.5960935 10.8219147,13.4360417 10.9195048,13.323564 L14.4740134,9.24571185 C14.6130581,9.09912006 14.8414441,9.08941423 14.9921289,9.22369323 C15.1428137,9.35797223 15.1623442,9.58860266 15.0364357,9.74690038 L11.4744281,13.8247525 C11.4059676,13.9037715 11.3082203,13.9505135 11.2044654,13.9538612 L11.2044654,13.9538612 Z" fill="#721C96" transform="translate(243.790055 159)"/>
        <path d="M18.8609069,4.6818587 C20.0457431,5.50957917 18.2609899,7.78011507 16.5587252,9.35202456 C15.0214377,10.7720587 13.0267135,12.6325313 12.5392809,12.2300617 C12.0518483,11.8275922 13.7541129,8.97993007 14.7889699,7.4459894 C15.8238268,5.91204873 17.6760707,3.85413828 18.8609069,4.6818587 Z" fill="url(#4xk1kagg4__gpuglktp4s)" transform="translate(243.790055 159)"/>
        <path d="M11.2569582,20.3402144 C11.0940625,20.3381816 10.9510948,20.229877 10.9031859,20.0722046 C10.855277,19.9145322 10.9133905,19.7435743 11.0469872,19.6491707 L17.0461578,15.5029747 C17.2156701,15.3964379 17.4378817,15.4429769 17.5517544,15.6088646 C17.665627,15.7747524 17.6312773,16.0018875 17.4735987,16.1256635 L11.4744281,20.2718595 C11.410687,20.3169184 11.3346917,20.3408013 11.2569582,20.3402144 Z" fill="#721C96" transform="translate(243.790055 159)"/>
        <path d="M11.0394882,15.5333694 C10.9488332,15.5342695 10.8609192,15.5018966 10.7920224,15.4422246 L6.22515383,11.4023413 C6.08039213,11.2615388 6.07080746,11.0302655 6.20341009,10.8776757 C6.33601273,10.7250859 6.56376391,10.7053086 6.7200854,10.8328089 L11.2644571,14.8650984 C11.3843074,14.9688688 11.4272347,15.1374849 11.3718671,15.2869985 C11.3164995,15.436512 11.1746703,15.5349685 11.0169913,15.5333694 L11.0394882,15.5333694 Z" fill="#721C96" transform="translate(243.790055 159)"/>
        <path d="M11.0094924,22.4512702 C10.8370163,22.4512702 10.2595961,22.2310511 3.26306337,17.8950109 C3.13654951,17.8307913 3.05652063,17.6999104 3.05613803,17.556603 C3.05575817,17.4132956 3.13508953,17.28198 3.26125988,17.2170711 C3.38743023,17.1521623 3.53894133,17.1647201 3.65300947,17.2495408 C6.28514557,18.8670129 10.5895505,21.4792682 11.084482,21.6842999 C11.2915601,21.6968817 11.4493579,21.8770735 11.4369332,22.0867695 C11.4245086,22.2964655 11.2465664,22.4562582 11.0394882,22.4436765 L11.0094924,22.4512702 Z" fill="#721C96" transform="translate(243.790055 159)"/>
        <path d="M20.7731425,12.7464378 C21.2755731,13.9994091 19.3933333,15.9434131 17.1811391,17.2267595 C15.1864149,18.3810118 12.5917736,19.9073587 12.1718317,19.3530139 C11.7518898,18.798669 14.4815123,15.6320687 15.9213133,14.2196283 C17.3611142,12.8071879 20.1732254,11.2504659 20.7731425,12.7464378 L20.7731425,12.7464378 Z" fill="url(#4xk1kagg4__0jsm89xhwt)" transform="translate(243.790055 159)"/>
        <path d="M0.308471843,15.5333498 C1.3133329,14.553754 3.89297628,15.6624438 5.97018911,17.340666 C7.84492993,18.8594191 10.2895919,20.8110169 9.92964169,21.4412994 C9.56969146,22.0715819 5.47525754,20.5983914 3.57052085,19.7175146 C1.66578416,18.8366378 -0.891362288,16.6951959 0.308471843,15.5333498 Z" fill="url(#4xk1kagg4__pd2a79holu)" transform="translate(243.790055 159)"/>
        <path d="M2.37818569,7.61305222 C1.33582979,8.61542928 3.45053742,10.5746208 5.377771,11.8579672 C7.11753048,13.0122196 9.37471839,14.5309727 9.78716138,14.0601592 C10.1996044,13.5893457 8.09239567,11.022653 6.85506674,9.68615023 C5.61773781,8.34964749 3.42804053,6.60308137 2.37818569,7.61305222 L2.37818569,7.61305222 Z" fill="url(#4xk1kagg4__o7f1ebalkv)" transform="translate(243.790055 159)"/>
        <path d="M22.3254279,43 L9.62218417,43 C8.60835495,42.9982485 7.75088028,42.2400929 7.61246206,41.2230588 L5.4152658,25.1850259 L26.5323463,25.1850259 L24.33515,41.2230588 C24.1967318,42.2400929 23.3392571,42.9982485 22.3254279,43 Z" fill="url(#4xk1kagg4__1ztwtbs1hw)" transform="translate(243.790055 159)"/>
        <path fill="#72107F" d="M25.8499406 30.1513486L26.1648971 27.8428438 5.78271501 27.8428438 6.09767147 30.1513486z" transform="translate(243.790055 159)"/>
        <path d="M26.2473857,28.3744074 L5.70022643,28.3744074 C5.37771421,28.3730284 5.10123429,28.1407763 5.04031766,27.8200625 L4.63537364,25.7621521 C4.59488774,25.5613072 4.64556494,25.3526658 4.77343289,25.193753 C4.90130085,25.0348403 5.09285537,24.942439 5.29528242,24.9420254 L26.6523297,24.9420254 C26.8547567,24.942439 27.0463112,25.0348403 27.1741792,25.193753 C27.3020471,25.3526658 27.3527243,25.5613072 27.3122384,25.7621521 L26.9072944,27.8124688 C26.8495475,28.1361993 26.5722419,28.3723361 26.2473857,28.3744074 L26.2473857,28.3744074 Z" fill="#90209F" transform="translate(243.790055 159)"/>
      </g>
      <path d="M150.706722,30.7700423 C147.945298,30.7700423 145.706722,33.0086185 145.706722,35.7700423 C145.706722,38.5314661 147.945298,40.7700423 150.706722,40.7700423 C153.468146,40.7700423 155.706722,38.5314661 155.706722,35.7700423 C155.706722,33.0086185 153.468146,30.7700423 150.706722,30.7700423 Z" stroke="#FFF" fill="url(#4xk1kagg4__swrtewpg1x)" fill-rule="nonzero"/>
    </g>
    <g fill-rule="nonzero">
      <path d="M0 0H10V23H0z" transform="translate(159.559143 165.423793)" fill="#8B27C0"/>
      <path d="M91.7903956,147.513611 C100.95589,144.826798 110.626411,142.139985 119.791905,139.453172 C114.626627,125.175109 109.456348,110.902039 104.29107,96.6239758 C102.680983,93.7074353 99.6508194,92.1143251 96.7906652,92.5937564 C94.1205212,93.0432232 92.1204134,95.6351487 91.7903956,96.1195741 C91.7903956,113.419054 91.7903956,130.214132 91.7903956,147.513611 Z" fill="url(#4xk1kagg4__4kez3xyc7y)" transform="translate(91 56)"/>
      <path fill="url(#4xk1kagg4__rowvg50bhz)" d="M87.79018 98.936233L87.79018 132.031975 69.7892096 132.031975 69.7892096 114.053301 64.2889131 118.54797 64.2889131 142.020128 91.7903956 147.513611 91.7903956 96.0746274z" transform="translate(91 56)"/>
      <path d="M100.540867,8.6033846 C125.927236,33.9583089 125.927236,75.0645493 100.540867,100.419474 C75.1544988,125.774398 33.9972801,125.774398 8.61091154,100.419474 C7.21583634,99.0261264 5.90076544,97.5828384 4.65569832,96.1045919 C3.94566005,95.2555989 3.26062312,94.3916238 2.59558727,93.5176605 C-4.18977852,81.7316409 8.00087866,55.1132153 31.5871502,31.5561583 C55.1734217,7.99910139 81.8248584,-4.17645613 93.6254945,2.60050513 C94.5005417,3.25972318 95.3605881,3.9439116 96.2156342,4.65806448 C97.7057145,5.89659536 99.1507924,7.21003737 100.540867,8.6033846 Z" fill="url(#4xk1kagg4__t51out5uzA)" transform="translate(91 56)"/>
      <path d="M95.9456196,4.36341399 C96.0406247,4.45830144 96.1306296,4.54819481 96.2206344,4.65307041 C105.96616,15.1306421 93.7755026,43.611858 68.7191519,68.6321793 C43.6628011,93.6525005 15.1512641,105.833052 4.66069859,96.0995978 C4.55569293,96.0097044 4.46568808,95.9198111 4.37068296,95.8249236 C3.68064576,95.1357411 3.09561422,94.3666534 2.60058754,93.5176605 C-4.18477825,81.7316409 8.00587893,55.1132153 31.5921504,31.5561583 C55.1784219,7.99910139 81.8298587,-4.17645613 93.6304948,2.60050513 C94.4855409,3.08992459 95.2555824,3.67922557 95.9456196,4.36341399 Z" stroke="#FFF" stroke-width="1.149984" fill="url(#4xk1kagg4__nuema79tcB)" transform="translate(91 56)"/>
      <path d="M71.3842956,66.9991164 C70.6792575,67.7232574 69.9692193,68.4473985 69.2491805,69.1665454 C67.719098,70.6947327 66.1690144,72.1829674 64.60393,73.6262554 L63.5588737,72.5475349 L31.8671652,39.7614254 L37.4024636,34.2329831 L70.2992371,65.9553545 L71.3842956,66.9991164 Z" fill="url(#4xk1kagg4__8ipb6qdbtC)" transform="translate(91 56)"/>
      <path fill="url(#4xk1kagg4__3bvhiy21jD)" d="M30.2170763 24.344712440000002A8.25044477 8.24022556 0 1 0 30.2170763 40.82516356A8.25044477 8.24022556 0 1 0 30.2170763 24.344712440000002Z" transform="translate(91 56)"/>
    </g>
    <path d="M66.6837962,70.5407967 C64.0138544,66.674796 61.3439126,62.812785 58.6739708,58.9467843 C59.1262998,58.0890029 59.5786288,57.2312215 60.0309577,56.3774298 C62.0204046,56.4811615 64.0138544,56.5888829 66.0033012,56.6926146 C66.2314672,61.3086753 66.4556302,65.924736 66.6837962,70.5407967 Z" fill="#6D209D" fill-rule="nonzero" transform="translate(.209945)"/>
    <path d="M63.7176389,72.2962563 C60.0149461,71.6180106 56.3162561,70.9357751 52.6135633,70.2575294 C52.3853973,69.5194384 52.1532285,68.7773578 51.9210596,68.0392669 C53.1059213,66.9780118 54.2907831,65.912767 55.4756448,64.8515119 C58.2256448,67.3330934 60.9716419,69.8146748 63.7176389,72.2962563 Z" fill="#6D209D" fill-rule="nonzero" transform="translate(.209945)"/>
    <path d="M68.5211324,68.7055436 C68.7973333,65.3941085 69.0775371,62.0826734 69.3537379,58.7712383 C69.9861979,58.5039297 70.6226608,58.2366211 71.2551208,57.9693125 C72.2998806,58.9188565 73.3406375,59.8684005 74.3853973,60.8139549 C72.4319766,63.4431545 70.4745531,66.0723542 68.5211324,68.7055436 Z" fill="#6D209D" fill-rule="nonzero" transform="translate(.209945)"/>
    <path d="M101.086327,84.501267 C100.770482,84.1832561 100.593031,83.7518633 100.593031,83.3020365 C100.593031,82.8522098 100.770482,82.420817 101.086327,82.1028061 L102.276485,80.9039995 L101.086327,79.7051927 C100.428788,79.0428761 100.428788,77.9690484 101.086327,77.3067318 C101.743866,76.6444151 102.809947,76.6444151 103.467486,77.3067318 L104.657644,78.5063862 L105.847803,77.3067318 C106.505342,76.644181 107.571612,76.6439911 108.229383,77.3063077 C108.887154,77.9686246 108.887343,79.0426419 108.229804,79.7051927 L107.038803,80.905695 L108.229804,82.1045017 C108.887343,82.7670525 108.887154,83.8410699 108.229383,84.5033865 C107.571612,85.1657034 106.505342,85.1655135 105.847803,84.5029627 L104.656803,83.3033083 L103.468327,84.5021149 C103.15261,84.8202549 102.72433,84.9989948 102.277748,84.9989948 C101.831166,84.9989948 101.402885,84.8202549 101.087168,84.5021149 L101.086327,84.501267 Z M94.7054267,76.411442 C93.6926702,75.8022059 93.3615204,74.4816428 93.9655757,73.461055 C96.1894132,70.3193541 99.6133094,68.2542065 103.412775,67.7629084 C106.315786,67.4492178 110.743109,68.1181418 115.364864,73.0931045 C116.143267,73.9648791 116.085835,75.3038101 115.235685,76.1047114 C114.385536,76.9056129 113.055397,76.8738718 112.243854,76.0333176 C109.500765,73.0803873 106.683608,71.7383004 103.869817,72.0418172 C101.406806,72.3977396 99.1744684,73.695382 97.6362134,75.665367 C97.3459029,76.1554386 96.8742057,76.5092734 96.3248912,76.6490308 C95.7755768,76.7887882 95.1936429,76.7030198 94.7071101,76.4105941 L94.7054267,76.411442 Z M117.178719,70.3148235 C112.827991,66.1334131 108.390568,64.1173154 103.990179,64.3199425 C97.5335265,64.6200681 93.0430764,69.6043567 92.5532092,70.1698476 C92.0548591,70.7597245 91.2802192,71.0342977 90.52495,70.8887696 C89.7696809,70.7432414 89.1503418,70.2000709 88.9033191,69.4665728 C88.6562963,68.7330746 88.8197124,67.9224481 89.3311955,67.3440891 C90.3319725,66.1859775 95.7339797,60.3920281 103.793222,60.0189906 C109.403128,59.7587122 114.903614,62.1749774 120.128865,67.2008088 C120.680967,67.7317823 120.909903,68.5191052 120.729434,69.2662005 C120.548966,70.0132958 119.986511,70.6066621 119.253941,70.8227839 C118.52137,71.0389058 117.72998,70.8449492 117.177878,70.3139757 L117.178719,70.3148235 Z" fill="url(#4xk1kagg4__k5337ftbbE)" fill-rule="nonzero" transform="rotate(-45 104.8950275 72.24657397)"/>
    <path d="M18.7568198,15.0398663 C18.7568198,15.0398663 19.8322417,14.6712937 21.9306261,14.7502735 C23.137197,14.8029268 24.4224574,15.1188461 24.7109853,15.2504791 C25.2880409,15.5137453 26.1798543,15.6980315 27.5438041,15.3821122 C30.0880951,14.7766002 29.8782566,12.8021043 29.694648,11.8543463 C29.3536605,10.0378102 28.1733194,8.95841915 27.7011829,7.80004827 C27.3864253,7.03657655 23.137197,6.87861689 20.5929061,9.27433848 C19.2814159,10.459036 18.6519006,13.9604752 18.7568198,15.0398663 L18.7568198,15.0398663 Z" fill="#321011" fill-rule="nonzero" transform="rotate(-3 2009.6957308 -439.3439742)"/>
    <path d="M20.9338935,8.66882643 L18.9666582,15.1188461 L18.3896025,16.6194629 C18.3896025,16.6194629 19.2289563,17.698854 21.2224214,18.1200797 C22.5863712,18.4096725 23.5044143,18.4359991 24.1076998,18.3833458 C24.606066,18.3306926 25.2093515,18.2253862 24.8945939,17.3039548 C24.4486872,15.934971 24.606066,15.0661929 24.606066,15.0661929 L25.3142708,11.1961811 L20.9338935,8.66882643 L20.9338935,8.66882643 Z" fill="#EA9D7D" fill-rule="nonzero" transform="rotate(-3 2009.6957308 -439.3439742)"/>
    <path d="M20.6191359,12.1439391 C21.274881,13.1443503 22.4289923,13.9868018 23.0847374,14.3027212 C24.0027806,14.7502735 24.6585257,14.85558 24.6585257,14.85558 L25.2355813,11.6437335 L20.9338935,8.66882643 L20.6978253,9.11637881 L20.5142166,9.85352392 C20.4879868,9.87985053 20.0158504,11.2225077 20.6191359,12.1439391 Z" fill="url(#4xk1kagg4__pym0z1ydmF)" fill-rule="nonzero" transform="rotate(-3 2009.6957308 -439.3439742)"/>
    <path d="M18.5469814,16.6721161 L18.5207516,16.6721161 C18.4715998,16.6469526 18.4410534,16.595854 18.4420621,16.5404831 L19.6748629,12.7494511 C19.9109312,11.9596528 20.6191359,9.30066509 20.6191359,9.30066509 C20.6442069,9.25133193 20.6951176,9.22067279 20.7502849,9.22166093 C20.7994366,9.24684882 20.829983,9.29794738 20.8289743,9.35331831 L19.8847014,12.8021043 C19.6748629,13.5129228 18.6519006,16.5668097 18.6519006,16.5668097 C18.6519006,16.6457895 18.599441,16.6721161 18.5469814,16.6721161 L18.5469814,16.6721161 Z" fill="#CF7653" fill-rule="nonzero" transform="rotate(-3 2009.6957308 -439.3439742)"/>
    <path d="M27.4388849,1.90288743 C28.0159406,2.64003254 28.1995492,3.2718712 28.3044684,4.03534291 L28.3831578,5.4569799 C28.3831578,6.56269756 28.3044684,8.1159676 28.1733194,8.98474576 C27.9110213,10.4853626 27.2028166,11.3804673 26.3634629,11.6437335 C25.5241092,11.9069996 24.0027806,11.3541407 22.9798182,10.8276085 C22.1142347,10.3800561 21.6158684,9.90617714 21.4847194,9.35331831 C21.3535704,8.77413287 21.0912723,8.03698777 21.0912723,8.03698777 L19.5961735,7.01024994 C19.5961735,7.01024994 18.4420621,3.0349317 20.9863531,1.32370199 C23.1896566,-0.150588214 26.4159225,0.612883501 27.4388849,1.90288743 L27.4388849,1.90288743 Z" fill="#EA9D7D" fill-rule="nonzero" transform="rotate(-3 2009.6957308 -439.3439742)"/>
    <path d="M25.4716496,11.7753665 C25.1831217,11.7753665 24.9470535,11.7227133 24.4224574,11.5910802 C23.5831037,11.3804673 22.4027625,10.7223021 21.799477,10.1431166 C21.2224214,9.5639312 21.274881,9.01107237 21.274881,8.98474576 C21.274881,8.93209254 21.274881,8.8531127 21.3273406,8.8531127 C21.3798002,8.8531127 21.40603,8.90576593 21.4322598,8.95841915 C21.4584896,9.06372559 21.4584896,9.51127798 21.9306261,9.98515697 C22.4814519,10.5380158 23.6617931,11.1698545 24.4486872,11.3804673 C25.2618111,11.5647536 25.41919,11.6174068 26.0224755,11.5647536 C26.5995311,11.5121004 26.9142888,11.3278141 26.9142888,11.3278141 C27.019208,11.2488343 27.0454378,11.2488343 26.9929782,11.3278141 C26.9405186,11.3804673 26.6257609,11.6437335 26.0487053,11.7490399 C25.812637,11.7753665 25.6552582,11.7753665 25.4716496,11.7753665 L25.4716496,11.7753665 Z" fill="#B76349" fill-rule="nonzero" transform="rotate(-3 2009.6957308 -439.3439742)"/>
    <path d="M24.1339296,5.9308589 C24.0537932,5.86831773 24.0314638,5.75625853 24.08147,5.66759279 C24.1076998,5.64126618 24.5273766,5.00942752 25.4716496,5.08840735 C25.5765688,5.08840735 25.6552582,5.19371379 25.6552582,5.29902024 C25.6552582,5.40432668 25.550339,5.48330651 25.4454198,5.48330651 C24.7372151,5.43065329 24.4486872,5.87820568 24.4224574,5.90453229 C24.3175382,5.98351212 24.1601594,5.95718551 24.1339296,5.9308589 L24.1339296,5.9308589 Z M28.0421704,5.4569799 C28.0159406,5.4569799 27.9634809,5.4569799 27.9372511,5.43065329 C27.7536425,5.29902024 27.5438041,5.32534685 27.5175743,5.32534685 C27.4126551,5.35167346 27.3077358,5.27269363 27.281506,5.16738718 C27.2552762,5.06208074 27.3339657,4.9567743 27.4388849,4.93044768 C27.4651147,4.93044768 27.8323319,4.82514124 28.1733194,5.11473396 C28.2520088,5.16738718 28.2520088,5.29902024 28.1995492,5.37800007 C28.1733194,5.43065329 28.09463,5.4569799 28.0421704,5.4569799 Z" fill="#4F2B23" fill-rule="nonzero" transform="rotate(-3 2009.6957308 -439.3439742)"/>
    <path d="M25.5765688,10.1431166 L25.5765688,10.1431166 C24.5798362,10.0904634 24.1601594,9.37964492 24.0552402,8.98474576 C24.0290104,8.87943932 24.08147,8.77413287 24.1863892,8.74780626 C24.2913084,8.72147965 24.3962276,8.77413287 24.4224574,8.87943932 C24.4224574,8.90576593 24.6322959,9.69556425 25.5765688,9.74821747 C25.681488,9.74821747 25.7601774,9.85352392 25.7601774,9.93250375 C25.7601774,10.0641368 25.681488,10.1431166 25.5765688,10.1431166 L25.5765688,10.1431166 Z" fill="#CF7653" fill-rule="nonzero" transform="rotate(-3 2009.6957308 -439.3439742)"/>
    <path d="M26.4159225,8.69515304 L26.3634629,8.69515304 C26.2585437,8.69515304 26.2060841,8.5898466 26.2060841,8.51086676 C26.2060841,8.40556032 26.3110033,8.3529071 26.3896927,8.3529071 C26.4421523,8.3529071 26.5733013,8.3529071 26.6257609,8.19494743 C26.6782206,8.03698777 26.5470715,7.80004827 26.4946119,7.72106844 C26.4421523,7.6420886 26.4421523,7.53678216 26.5208417,7.48412894 C26.5995311,7.43147572 26.7044504,7.43147572 26.75691,7.51045555 C26.7831398,7.56310877 27.0716676,7.93168132 26.9667484,8.30025388 C26.8618292,8.61617321 26.5995311,8.69515304 26.4159225,8.69515304 L26.4159225,8.69515304 Z" fill="#B4603F" fill-rule="nonzero" transform="rotate(-3 2009.6957308 -439.3439742)"/>
    <g fill="#4F2B23" fill-rule="nonzero">
      <path d="M0.36721725 -0.31335901A1 1 0 1 0 0.36721725 1.68664099A1 1 0 1 0 0.36721725 -0.31335901Z" transform="rotate(-3 2116.0870588 -913.78950648)"/>
      <path d="M0.288527842,0.58133455 C0.236068235,0.58133455 0.0786894116,0.607661161 0.0524596077,0.555007939 C0.0262298039,0.476028107 0.157378823,0.344395052 0.236068235,0.318068442 C0.498366273,0.186435387 0.708204704,0.212761998 0.786894116,0.212761998 C0.859325719,0.212761998 0.918043135,0.271696124 0.918043135,0.344395052 C0.918043135,0.417093981 0.859325719,0.476028107 0.786894116,0.476028107 C0.708204704,0.476028107 0.550825881,0.476028107 0.34098745,0.555007939 C0.34098745,0.58133455 0.314757646,0.58133455 0.288527842,0.58133455 L0.288527842,0.58133455 Z" transform="rotate(-3 2116.0870588 -913.78950648)"/>
      <path d="M3.09511686 -0.52397189A1 1 0 1 0 3.09511686 1.4760281100000001A1 1 0 1 0 3.09511686 -0.52397189Z" transform="rotate(-3 2116.0870588 -913.78950648)"/>
      <path d="M3.01642744,0.370721663 C2.96396784,0.370721663 2.80658901,0.423374885 2.78035921,0.370721663 C2.7541294,0.291741831 2.88527842,0.160108776 2.96396784,0.107455555 C3.22626587,-0.0241774998 3.43610431,0.00214911109 3.51479372,0.00214911109 C3.58722532,0.00214911109 3.64594274,0.061083237 3.64594274,0.133782165 C3.64594274,0.206481094 3.58722532,0.26541522 3.51479372,0.26541522 C3.43610431,0.26541522 3.27872548,0.26541522 3.06888705,0.344395052 C3.06888705,0.370721663 3.04265725,0.370721663 3.01642744,0.370721663 L3.01642744,0.370721663 Z" transform="rotate(-3 2116.0870588 -913.78950648)"/>
    </g>
    <path d="M18.4945218,16.6721161 L18.4682919,16.6721161 C18.4191402,16.6469526 18.3885938,16.595854 18.3896025,16.5404831 L19.6224033,12.7494511 C19.8584716,11.9596528 20.5666763,9.30066509 20.5666763,9.30066509 C20.5917473,9.25133193 20.6426579,9.22067279 20.6978253,9.22166093 C20.746977,9.24684882 20.7775234,9.29794738 20.7765147,9.35331831 L19.8322417,12.8021043 C19.6224033,13.5129228 18.599441,16.5668097 18.599441,16.5668097 C18.599441,16.6457895 18.5469814,16.6721161 18.4945218,16.6721161 Z" fill="#CF7653" fill-rule="nonzero" transform="rotate(-3 2009.6957308 -439.3439742)"/>
    <path d="M22.1929241,6.51004434 L24.343768,5.06208074 C25.7864072,4.37758886 27.8323319,4.50922191 27.8323319,4.50922191 L26.0487053,3.2718712 L23.4781845,3.2718712 L22.1929241,6.51004434 Z" fill="url(#4xk1kagg4__pvkw89sefG)" fill-rule="nonzero" transform="rotate(-3 2009.6957308 -439.3439742)"/>
    <path d="M22.2978433,0.454830489 C22.2978433,0.454830489 20.7765147,0.691863334 19.7273225,2.32411321 C19.0715774,3.35085103 18.5207516,3.45615748 17.4977892,3.90370986 C16.7895845,4.21962919 16.1338394,5.40432668 16.2649884,6.77331045 C16.3961374,8.24760065 15.8715414,8.72147965 14.7436598,9.35331831 C13.6157782,9.98515697 12.7764245,10.932915 13.1698716,13.0653704 C13.5633186,15.1978259 15.7141625,15.5927251 17.0256527,15.5400719 C18.3633727,15.4874186 18.8355092,15.3031324 19.3338755,14.4080276 C20.461757,12.3808786 21.1175021,6.69433061 21.1175021,6.69433061 C21.1175021,6.69433061 20.4879868,5.16738718 21.0650425,2.7979922 C21.668328,0.402270614 22.2978433,0.454830489 22.2978433,0.454830489 L22.2978433,0.454830489 Z" fill="#321011" fill-rule="nonzero" transform="rotate(-3 2009.6957308 -439.3439742)"/>
    <path fill="#A84D3B" fill-rule="nonzero" d="M21.2224214 9.35331831L21.1175021 9.43229814 21.2486512 9.51127798z" transform="rotate(-3 2009.6957308 -439.3439742)"/>
    <path d="M21.3535704,6.87861689 C21.3535704,6.87861689 22.2716135,7.56310877 22.9798182,6.11514517 C23.6617931,4.66718158 23.8978613,3.42983086 23.8978613,3.42983086 L24.0552402,4.2459558 C24.08147,4.35126225 24.1601594,4.40391547 24.2388488,4.40391547 L28.8028347,4.40391547 C28.9339837,4.40391547 29.0389029,4.27228241 29.0389029,4.14064936 C28.9339837,3.45615748 28.5405366,1.56064149 26.8093696,0.849822999 C24.6585257,-0.0452817707 23.006048,0.323290782 23.006048,0.323290782 L21.8257068,1.40268183 L21.1961915,3.58779053 L21.1175021,5.48330651 L21.3535704,6.87861689 L21.3535704,6.87861689 Z" fill="#321011" fill-rule="nonzero" transform="rotate(-3 2009.6957308 -439.3439742)"/>
    <path fill="#EA9D7D" fill-rule="nonzero" d="M20.4879868 6.246778229999999A1.3901796 1.50061682 0 1 0 20.4879868 9.24801187A1.3901796 1.50061682 0 1 0 20.4879868 6.246778229999999Z" transform="rotate(-3 2009.6957308 -439.3439742)"/>
    <path fill="url(#4xk1kagg4__ypn4fhdeeH)" fill-rule="nonzero" d="M20.5666763 6.74739505A1 1 0 1 0 20.5666763 8.74739505A1 1 0 1 0 20.5666763 6.74739505Z" transform="rotate(-3 2009.6957308 -439.3439742)"/>
    <path d="M21.40603,8.74780626 C21.1699617,9.01107237 20.8289743,9.14270542 20.4879868,9.14270542 C19.7797821,9.14270542 19.2027265,8.51086676 19.2027265,7.74739505 C19.2027265,6.98392333 19.7797821,6.35208467 20.4879868,6.35208467 C20.9863531,6.35208467 21.4322598,6.668004 21.6420982,7.11555639 C21.6420982,7.11555639 21.6945578,7.141883 21.7732472,7.08922978 C21.8519366,7.03657655 21.8257068,6.93127011 21.8257068,6.93127011 C21.5634088,6.45739112 21.0650425,6.11514517 20.5142166,6.11514517 C19.6748629,6.11514517 18.992888,6.82596367 18.992888,7.72106844 C18.992888,8.5898466 19.6748629,9.3269917 20.5142166,9.3269917 C20.8814339,9.3269917 21.1699617,9.22168526 21.4322598,9.01107237 L21.40603,8.74780626 L21.40603,8.74780626 Z" fill="#B76349" fill-rule="nonzero" transform="rotate(-3 2009.6957308 -439.3439742)"/>
    <path d="M20.3568378,6.11514517 C20.3568378,6.11514517 20.0945398,2.87697204 21.0388127,1.45533505 C22.0093155,0.0336980619 23.0322778,0.0336980619 23.0322778,0.0336980619 C23.0322778,0.0336980619 23.137197,-0.0189551598 23.9240911,0.00737145104 C24.7109853,0.0336980619 24.8683641,0.296964171 24.8683641,0.296964171 C24.8683641,0.296964171 23.7667123,0.244310949 23.1634268,0.533903669 C22.4552221,0.87614961 21.6158684,1.63962133 21.4584896,3.14023815 C21.3011108,4.64085496 21.3535704,6.40473789 21.3535704,6.40473789 C21.3535704,6.40473789 21.0650425,6.08881856 20.3568378,6.11514517 L20.3568378,6.11514517 Z" fill="url(#4xk1kagg4__f80i9wgzjI)" fill-rule="nonzero" transform="rotate(-3 2009.6957308 -439.3439742)"/>
    <g fill-rule="nonzero">
      <path d="M1.83608627,8.74100574 L0.34098745,1.76445385 L6.63614038,0.869349084 L7.73779214,6.81916314 C7.73779214,6.84548975 6.45253175,12.374078 1.83608627,8.74100574 L1.83608627,8.74100574 Z" fill="#E79A7A" transform="rotate(10 -1053.57193045 444.05874464)"/>
      <path d="M4.45906666,7.31936875 C7.29188547,7.2140623 7.55418351,6.08201804 7.55418351,6.08201804 L6.7672894,1.29057486 L0.236068235,1.97506674 L1.46886902,7.10875586 C1.44263921,7.18773569 2.09838431,7.39834858 4.45906666,7.31936875 L4.45906666,7.31936875 Z" fill="url(#4xk1kagg4__f5qawc9hiJ)" transform="rotate(10 -1053.57193045 444.05874464)"/>
      <path d="M1.75739686,8.21447352 C1.75739686,8.21447352 3.17380627,8.4250864 4.95743293,7.87222758 C6.89843841,7.29304214 7.68533253,6.16099787 7.68533253,6.16099787 L8.157469,7.4510018 C8.157469,7.4510018 8.76075449,8.4250864 5.82301646,9.71509034 C2.91150823,11.0050943 1.91477568,9.68876373 1.91477568,9.68876373 L1.75739686,8.21447352 L1.75739686,8.21447352 Z" fill="#FFF" transform="rotate(10 -1053.57193045 444.05874464)"/>
      <path d="M2.93773803,14.9014327 L18.0461051,11.8738724 C18.3346329,11.8212192 18.5182415,11.5316265 18.4395521,11.294687 C18.3084031,10.6628483 18.0198752,9.6361105 17.521509,8.97794523 C16.8657639,8.13549368 10.2296235,6.84548975 8.36730743,6.4769172 C8.10500939,6.45059059 7.79025175,6.55589703 7.65910273,6.81916314 C7.29188547,7.55630825 6.29515293,9.05692507 4.22299842,9.58345728 C2.57052078,10.0310097 2.33445254,9.03059845 1.83608627,8.84631218 C1.65247764,8.79365896 1.3639498,8.87263879 1.33772,9.10957829 C1.25903059,9.84672339 1.41640941,12.1634651 2.25576313,14.5855133 C2.41314195,14.7961262 2.67543999,14.9277593 2.93773803,14.9014327 L2.93773803,14.9014327 Z" fill="url(#4xk1kagg4__xcd1dxk62K)" transform="rotate(10 -1053.57193045 444.05874464)"/>
      <path d="M4.59021567,13.190203 C4.48529646,13.2165296 3.85578117,11.1630539 1.46886902,11.1893805 L1.41640941,10.820808 C2.88527842,10.820808 3.51479372,11.2683604 4.0918494,11.8212192 C4.56398587,12.2687716 4.98366273,13.0585699 5.00989254,13.1112231 L4.59021567,13.190203 Z" fill="#FFF" transform="rotate(10 -1053.57193045 444.05874464)"/>
      <path d="M2.93773803,14.9014327 L18.0461051,11.8738724 C18.3346329,11.8212192 18.5182415,11.5316265 18.4395521,11.294687 C18.3870925,11.1104007 18.3608627,10.8734612 18.2821733,10.6101951 L2.0196949,13.6377554 L2.25576313,14.5065335 C2.33445254,14.7697996 2.67543999,14.9277593 2.93773803,14.9014327 Z" fill="#DB7028" transform="rotate(10 -1053.57193045 444.05874464)"/>
      <path d="M8.157469,9.26753795 L9.28535057,6.60855025 C9.41649958,6.63487687 9.70502743,6.7138567 9.86240625,6.7138567 L8.70829488,9.42549762 C8.57714586,9.68876373 8.05254978,9.58345728 8.157469,9.26753795 L8.157469,9.26753795 Z M9.94109566,9.68876373 L11.095207,6.97712281 C11.2525859,7.00344942 11.3837349,7.02977603 11.6722627,7.10875586 L10.5443812,9.87305 C10.3870023,10.1099895 9.78371684,9.97835645 9.94109566,9.68876373 L9.94109566,9.68876373 Z" fill="#FFF" transform="rotate(10 -1053.57193045 444.05874464)"/>
      <path d="M7.37057488,4.7920141 C7.65910273,4.73936088 7.84271135,4.44976816 7.79025175,4.16017544 L6.86821317,8.19427028e-14 L-3.45383338e-13,3.44935695 L0.524596077,5.71344548 C0.577055685,5.97671159 0.865583527,6.16099787 1.12788157,6.10834465 L7.37057488,4.7920141 Z" fill="#5E95DD" transform="rotate(10 -1053.57193045 444.05874464)"/>
    </g>
    <path d="M38.1475918,68.0108429 C36.4688843,61.7714361 31.7213444,48.2422305 29.1770534,42.318743 L23.9834977,42.5003569 L12.9669801,49.8454814 C12.9669801,49.8454814 24.3244851,72.3547337 25.1638389,75.9088261 C25.9769628,78.3835275 27.2359934,85.4917125 28.7835518,88.5192727 C29.6229055,90.1778492 30.7507871,90.8623411 31.7999792,90.9676475 C34.108202,91.0992806 38.9344859,89.8356033 41.1640192,89.2037646 C43.4722419,88.4666195 43.3148631,85.7549786 43.0787949,84.0437489 C42.4492796,79.6208783 39.0918647,71.5122821 38.1475918,68.0108429 Z" fill="url(#4xk1kagg4__7pa61rqjlL)" fill-rule="nonzero" transform="rotate(5 -1137.04150692 452.51998478)"/>
    <g fill-rule="nonzero">
      <path d="M1.83608627,7.87165665 L0.34098745,0.89510477 L6.63614038,-3.46758726e-13 L7.73779214,5.94981406 C7.73779214,5.97614067 6.45253175,11.504729 1.83608627,7.87165665 L1.83608627,7.87165665 Z" fill="#E79A7A" transform="rotate(12 -886.53366546 291.78115558)"/>
      <path d="M4.45906666,6.45001966 C7.29188547,6.34471322 7.55418351,5.21266895 7.55418351,5.21266895 L6.7672894,0.421225774 L0.236068235,1.10571766 L1.46886902,6.23940678 C1.44263921,6.31838661 2.09838431,6.5289995 4.45906666,6.45001966 L4.45906666,6.45001966 Z" fill="url(#4xk1kagg4__f5qawc9hiJ)" transform="rotate(12 -886.53366546 291.78115558)"/>
      <path d="M1.75739686,7.34512443 C1.75739686,7.34512443 3.17380627,7.55573732 4.95743293,7.00287849 C6.89843841,6.42369305 7.68533253,5.29164879 7.68533253,5.29164879 L8.157469,6.58165272 C8.157469,6.58165272 8.76075449,7.55573732 5.82301646,8.84574125 C2.91150823,10.1357452 1.91477568,8.81941464 1.91477568,8.81941464 L1.75739686,7.34512443 L1.75739686,7.34512443 Z" fill="#FFF" transform="rotate(12 -886.53366546 291.78115558)"/>
      <path d="M2.93773803,14.0320836 L18.0461051,11.0045233 C18.3346329,10.9518701 18.5182415,10.6622774 18.4395521,10.4253379 C18.3084031,9.79349925 18.0198752,8.76676142 17.521509,8.10859615 C16.8657639,7.2661446 10.2296235,5.97614067 8.36730743,5.60756812 C8.10500939,5.58124151 7.79025175,5.68654795 7.65910273,5.94981406 C7.29188547,6.68695916 6.29515293,8.18757598 4.22299842,8.7141082 C2.57052078,9.16166058 2.33445254,8.16124937 1.83608627,7.97696309 C1.65247764,7.92430987 1.3639498,8.00328971 1.33772,8.2402292 C1.25903059,8.97737431 1.41640941,11.2941161 2.25576313,13.7161643 C2.41314195,13.9267772 2.67543999,14.0584102 2.93773803,14.0320836 L2.93773803,14.0320836 Z" fill="url(#4xk1kagg4__xcd1dxk62K)" transform="rotate(12 -886.53366546 291.78115558)"/>
      <path d="M4.59021567,12.3208539 C4.48529646,12.3471805 3.85578117,10.2937049 1.46886902,10.3200315 L1.41640941,9.95145891 C2.88527842,9.95145891 3.51479372,10.3990113 4.0918494,10.9518701 C4.56398587,11.3994225 4.98366273,12.1892208 5.00989254,12.2418741 L4.59021567,12.3208539 Z" fill="#FFF" transform="rotate(12 -886.53366546 291.78115558)"/>
      <path d="M2.93773803,14.0320836 L18.0461051,11.0045233 C18.3346329,10.9518701 18.5182415,10.6622774 18.4395521,10.4253379 C18.3870925,10.2410516 18.3608627,10.0041121 18.2821733,9.74084602 L2.0196949,12.7684063 L2.25576313,13.6371844 C2.33445254,13.9004505 2.67543999,14.0584102 2.93773803,14.0320836 Z" fill="#DB7028" transform="rotate(12 -886.53366546 291.78115558)"/>
      <path d="M8.157469,8.39818887 L9.28535057,5.73920117 C9.41649958,5.76552778 9.70502743,5.84450761 9.86240625,5.84450761 L8.70829488,8.55614853 C8.57714586,8.81941464 8.05254978,8.7141082 8.157469,8.39818887 L8.157469,8.39818887 Z M9.94109566,8.81941464 L11.095207,6.10777372 C11.2525859,6.13410033 11.3837349,6.16042694 11.6722627,6.23940678 L10.5443812,9.00370092 C10.3870023,9.24064042 9.78371684,9.10900736 9.94109566,8.81941464 L9.94109566,8.81941464 Z" fill="#FFF" transform="rotate(12 -886.53366546 291.78115558)"/>
      <path d="M1.12788157,5.23899556 L7.37057488,3.92266502 C7.65910273,3.8700118 7.84271135,3.58041908 7.79025175,3.29082636 L7.31811528,1.07939105 L-2.21646728e-13,2.58000787 L0.524596077,4.8440964 C0.577055685,5.10736251 0.865583527,5.29164879 1.12788157,5.23899556 L1.12788157,5.23899556 Z" fill="#5E95DD" transform="rotate(12 -886.53366546 291.78115558)"/>
    </g>
    <path d="M26.0749351,66.7190034 C27.634958,61.5039409 28.9602946,48.7891053 30.6914617,42.6813316 L12.3929235,42.6828077 C10.9240545,50.5281377 11.0528788,58.8523791 10.7782291,61.5039409 C10.5835376,63.3835585 7.01798968,88.1092062 9.49769903,89.442757 C10.8455365,90.1676039 17.6523882,92.12819 20.856216,89.442757 C21.7585367,88.6864361 22.1162102,85.158213 22.4217003,83.626165 C24.9722164,70.835202 25.7326701,68.6856634 26.0749351,66.7190034 Z" fill="#84B9FF" fill-rule="nonzero" transform="rotate(-3 2009.6957308 -439.3439742)"/>
    <g fill-rule="nonzero">
      <path d="M6.45253175,9.09217623 L7.18696626,8.56564401 L8.65583527,7.43359974 C9.02305253,7.14400702 11.4099647,3.30032184 11.4099647,3.30032184 L9.31158037,2.43154368 L6.74105959,4.11644677 L5.63940783,6.14359581 L6.45253175,9.09217623 L6.45253175,9.09217623 Z" fill="#CC7A5E" transform="rotate(-13 528.91776873 -248.50070614)"/>
      <path d="M10.7279898,0.00949547609 L11.7247223,0.220108363 C11.9870204,0.272761585 12.0919396,0.588680915 11.9345608,0.799293802 L7.94763057,5.74869665 C7.84271135,5.85400309 7.71156233,5.90665631 7.55418351,5.85400309 L5.84924626,5.30114426 L10.3607725,0.11480192 C10.4656917,0.00949547609 10.5968408,-0.0168311348 10.7279898,0.00949547609 Z" fill="#1F2B36" transform="rotate(-13 528.91776873 -248.50070614)"/>
      <path d="M0,11.2772849 C0,11.2772849 4.14430901,7.27564008 4.51152626,6.64380142 C4.69513489,6.32788209 5.16727136,4.93257171 5.29842038,4.4323661 C5.4557992,3.80052744 6.00662508,3.35297506 6.42630194,3.01072912 C6.84597881,2.66848317 8.49845645,2.16827757 8.49845645,2.16827757 C8.49845645,2.16827757 8.65583527,2.58950334 8.41976704,2.93174928 C7.94763057,3.64256778 7.02958743,3.95848711 7.02958743,3.95848711 C7.02958743,3.95848711 6.53122116,5.03787815 6.26892312,5.45910393 L6.00662508,5.8803297 C6.00662508,5.8803297 6.29515293,5.82767648 6.89843841,6.59114819 C7.4754941,7.35461991 7.05581724,8.5393174 7.05581724,8.5393174 L2.67543999,14.1995387 L0,11.2772849 Z" fill="#E89976" transform="rotate(-13 528.91776873 -248.50070614)"/>
      <path d="M9.70502743,2.22093079 C9.91486586,1.87868485 10.4656917,2.11562435 10.6755302,2.27358401 C10.8853686,2.43154368 11.5935733,2.77378962 11.3575051,3.14236217 C11.1214368,3.51093472 10.8066792,3.53726133 10.3345427,3.27399522 C9.86240625,3.01072912 9.5476486,2.51052351 9.70502743,2.22093079 L9.70502743,2.22093079 Z" fill="#EA9D7D" transform="rotate(-13 528.91776873 -248.50070614)"/>
      <path d="M10.8853686,3.56358794 C10.6755302,3.56358794 10.4656917,3.4582815 10.2820831,3.37930167 C9.78371684,3.11603556 9.39026978,2.53685012 9.60010821,2.14195096 L9.60010821,2.14195096 C9.67879762,2.0103179 9.78371684,1.93133807 9.94109566,1.90501146 C10.2296235,1.85235824 10.5968408,2.0103179 10.7804494,2.14195096 C10.8066792,2.16827757 10.8591388,2.19460418 10.9115984,2.2472574 C11.1476666,2.40521707 11.4886541,2.61582995 11.5411137,2.87909606 C11.5673435,2.9844025 11.5411137,3.08970895 11.4886541,3.19501539 C11.3050455,3.48460811 11.095207,3.56358794 10.8853686,3.56358794 L10.8853686,3.56358794 Z M9.80994664,2.27358401 C9.70502743,2.45787029 9.94109566,2.90542267 10.3870023,3.14236217 C10.8591388,3.40562828 11.0689772,3.30032184 11.2263561,3.06338234 C11.2525859,3.03705573 11.2525859,2.9844025 11.2525859,2.95807589 C11.2263561,2.80011623 10.9115984,2.58950334 10.7279898,2.4841969 C10.6755302,2.43154368 10.5968408,2.40521707 10.570611,2.37889045 C10.4394619,2.27358401 10.1509341,2.14195096 9.94109566,2.19460418 C9.91486586,2.19460418 9.86240625,2.22093079 9.80994664,2.27358401 L9.80994664,2.27358401 Z" fill="#CC7A5E" transform="rotate(-13 528.91776873 -248.50070614)"/>
      <path d="M8.34107763,4.32705966 C8.41976704,3.9321605 9.02305253,3.95848711 9.25912076,4.03746694 C9.495189,4.11644677 10.4394619,4.22175322 10.3345427,4.6693056 C10.2296235,5.11685799 9.83617645,5.16951121 9.28535057,5.11685799 C8.76075449,5.01155154 8.28861802,4.64297899 8.34107763,4.32705966 L8.34107763,4.32705966 Z" fill="#EA9D7D" transform="rotate(-13 528.91776873 -248.50070614)"/>
      <path d="M9.60010821,5.24849104 C9.495189,5.24849104 9.39026978,5.24849104 9.28535057,5.22216443 C8.70829488,5.11685799 8.157469,4.69563221 8.23615841,4.27440644 L8.23615841,4.27440644 C8.26238821,4.14277338 8.34107763,4.01114033 8.47222665,3.9321605 C8.73452468,3.77420083 9.12797174,3.82685405 9.31158037,3.87950727 C9.36403998,3.90583389 9.41649958,3.90583389 9.495189,3.9321605 C9.80994664,4.01114033 10.2558533,4.11644677 10.4132321,4.37971288 C10.4704257,4.47437438 10.4892056,4.58746983 10.4656917,4.69563221 C10.3607725,5.1431846 10.0197851,5.24849104 9.60010821,5.24849104 L9.60010821,5.24849104 Z M8.47222665,4.35338627 C8.44599684,4.56399916 8.8132141,4.87991849 9.31158037,4.98522493 C9.88863605,5.03787815 10.1247043,4.95889832 10.2033937,4.64297899 C10.2033937,4.59032577 10.2033937,4.56399916 10.1771639,4.53767255 C10.0722447,4.37971288 9.65256782,4.27440644 9.41649958,4.22175322 C9.33781017,4.19542661 8.87878861,4.00324235 8.57714586,4.19542661 C8.52468625,4.22175322 8.49845645,4.27440644 8.47222665,4.35338627 Z" fill="#CC7A5E" transform="rotate(-13 528.91776873 -248.50070614)"/>
      <path d="M7.89517096,5.30114426 C7.94763057,4.95889832 8.49845645,4.98522493 8.70829488,5.03787815 C8.91813331,5.09053137 9.62633802,5.1431846 9.5476486,5.51175715 C9.46895919,5.90665631 9.20666115,6.01196276 8.73452468,5.93298292 C8.26238821,5.8803297 7.84271135,5.56441037 7.89517096,5.30114426 L7.89517096,5.30114426 Z" fill="#EA9D7D" transform="rotate(-13 528.91776873 -248.50070614)"/>
      <path d="M8.99682272,6.09094259 C8.89190351,6.09094259 8.8132141,6.09094259 8.70829488,6.06461598 C8.36730743,6.03828937 8.02631998,5.85400309 7.84271135,5.61706359 C7.76402194,5.51175715 7.73779214,5.38012409 7.73779214,5.27481765 C7.76402194,5.1431846 7.81648155,5.06420476 7.92140076,4.98522493 C8.1836988,4.82726527 8.57714586,4.87991849 8.70829488,4.9062451 C8.73452468,4.9062451 8.78698429,4.93257171 8.8394439,4.93257171 C9.07551213,4.98522493 9.44272939,5.03787815 9.60010821,5.24849104 C9.65720801,5.33339736 9.67623611,5.43843814 9.65256782,5.53808376 C9.60010821,5.98563614 9.28535057,6.09094259 8.99682272,6.09094259 Z M8.44599684,5.11685799 C8.31484782,5.11685799 8.1836988,5.1431846 8.10500939,5.19583782 C8.05254978,5.22216443 8.02631998,5.24849104 8.02631998,5.30114426 L8.02631998,5.30114426 C8.02631998,5.35379748 8.05254978,5.40645071 8.07877959,5.43277732 C8.1836988,5.56441037 8.41976704,5.72237004 8.76075449,5.77502326 C9.25912076,5.85400309 9.39026978,5.72237004 9.44272939,5.45910393 L9.44272939,5.38012409 C9.36403998,5.24849104 9.02305253,5.19583782 8.8656737,5.16951121 C8.8132141,5.16951121 8.52468625,5.11685799 8.44599684,5.11685799 Z" fill="#CC7A5E" transform="rotate(-13 528.91776873 -248.50070614)"/>
      <path d="M3.75086195,8.61829723 C5.71809724,10.1452407 5.14104156,11.0403454 5.14104156,11.0403454 L2.85904862,13.9625992 L0.34098745,10.9876922 L2.85904862,8.51299079 C3.06888705,8.35503112 3.51479372,8.43401096 3.75086195,8.61829723 L3.75086195,8.61829723 Z" fill="url(#4xk1kagg4__5hapsk8otM)" transform="rotate(-13 528.91776873 -248.50070614)"/>
      <path d="M8.8132141,3.24766861 C8.97059292,2.87909606 9.65256782,2.9844025 9.91486586,3.08970895 C10.1771639,3.19501539 11.1476666,3.48460811 10.9378282,3.90583389 C10.7279898,4.32705966 10.3345427,4.30073305 9.75748703,4.14277338 C9.15420155,4.01114033 8.65583527,3.56358794 8.8132141,3.24766861 L8.8132141,3.24766861 Z" fill="#EA9D7D" transform="rotate(-13 528.91776873 -248.50070614)"/>
      <path d="M10.3607725,4.37971288 C10.1509341,4.37971288 9.94109566,4.32705966 9.70502743,4.27440644 C9.25912076,4.16909999 8.8394439,3.90583389 8.68206508,3.58991455 C8.60337567,3.4582815 8.60337567,3.30032184 8.68206508,3.19501539 C8.89190351,2.7211364 9.67879762,2.85276945 9.94109566,2.95807589 C9.98053854,2.96466828 10.0170946,2.98301378 10.0460149,3.01072912 C10.4656917,3.16868878 10.9115984,3.35297506 11.0427474,3.64256778 C11.095207,3.74787422 11.0689772,3.85318066 11.0165176,3.95848711 C10.9115984,4.27440644 10.6493004,4.37971288 10.3607725,4.37971288 L10.3607725,4.37971288 Z M9.36403998,3.11603556 C9.18043135,3.11603556 8.99682272,3.16868878 8.94436312,3.30032184 L8.94436312,3.30032184 C8.94436312,3.32664845 8.91813331,3.37930167 8.94436312,3.48460811 C9.04928233,3.66889439 9.36403998,3.9321605 9.78371684,4.01114033 C10.4132321,4.19542661 10.6755302,4.14277338 10.8066792,3.85318066 C10.832909,3.82685405 10.832909,3.77420083 10.8066792,3.74787422 C10.7279898,3.53726133 10.2033937,3.35297506 9.96732547,3.27399522 C9.91486586,3.24766861 9.88863605,3.24766861 9.83617645,3.221342 C9.73125723,3.14236217 9.5476486,3.11603556 9.36403998,3.11603556 L9.36403998,3.11603556 Z" fill="#CC7A5E" transform="rotate(-13 528.91776873 -248.50070614)"/>
    </g>
    <path d="M33.3525547,20.6250216 C33.1951758,20.9146143 32.8279586,20.9935941 32.5656605,20.8356345 L30.1525186,19.4666507 L33.2097412,15.1314986 L35.1769764,16.6057888 C35.4130447,16.7374219 35.4655043,17.0796678 35.3081255,17.3166073 L33.3525547,20.6250216 Z" fill="url(#4xk1kagg4__g0mijnvosN)" fill-rule="nonzero" transform="rotate(-93 103.59611063 51.1154623)"/>
    <g transform="rotate(-3 2068.86486251 -721.2452577)">
      <mask id="4xk1kagg4__sb9lzmaqvR" fill="#fff">
        <use xlink:href="#4xk1kagg4__wnvcybyzgO"/>
      </mask>
      <use fill="url(#4xk1kagg4__fr4yzfsjwP)" fill-rule="nonzero" transform="rotate(-38 18.678647 19.040126)" xlink:href="#4xk1kagg4__wnvcybyzgO"/>
      <path d="M30.1478284,16.393387 L22.8034833,27.081991 C22.8034833,27.081991 24.1149735,28.1087288 24.9280975,28.5299546 L27.0527116,29.5040392 C27.0527116,29.5040392 27.6822269,28.7932207 29.9904496,25.5023944 L34.082299,19.4736005 C34.082299,19.4736005 33.6626221,19.0523747 32.61343,18.3415562 C32.0363743,17.8413506 30.1478284,16.393387 30.1478284,16.393387 L30.1478284,16.393387 Z" fill="url(#4xk1kagg4__rl9ydf1bkQ)" fill-rule="nonzero" mask="url(#4xk1kagg4__sb9lzmaqvR)" transform="rotate(-81 28.442891 22.948713)"/>
    </g>
    <path d="M32.3438582,38.5758564 L32.1340198,35.1797236 L31.8979515,31.7046109 L31.6356535,28.3084781 C31.5307343,27.0184742 31.4258151,25.9654098 31.3471256,25.3598977 C31.3208958,25.1229582 31.2684362,24.9123453 31.2159766,24.6754058 C31.0061382,23.5696882 30.6126911,22.4113173 30.1143249,21.279273 C28.4356174,17.5408943 26.0670661,13.9920671 22.1588253,14.1763534 C21.2145524,14.20268 17.4715594,14.3553744 15.792852,21.279273 C15.5830135,22.1743778 15.3731751,23.174789 15.2157963,24.3068333 C15.1844851,24.4373948 15.1582356,24.569127 15.1371069,24.7017325 C15.0059578,25.5178574 14.7436598,26.8078613 14.4813618,28.3348048 L13.8518465,31.7309376 L13.1961014,35.2060502 L11.7534622,42.6828077 L32.5536966,42.6828077 C32.4907313,41.3134736 32.4207843,39.9444719 32.3438582,38.5758564 L32.3438582,38.5758564 Z" fill="url(#4xk1kagg4__z0xoc3mkfS)" fill-rule="nonzero" transform="rotate(-3 2009.6957308 -439.3439742)"/>
    <g fill-rule="nonzero">
      <path d="M4.42236076,23.5038245 C3.39939841,28.6375136 2.97972155,33.7185495 2.97972155,33.7185495 C2.97972155,33.7185495 2.11413802,35.377126 2.50758508,37.3779485 C2.50758508,37.5359081 2.74365331,37.6938678 2.95349175,37.8781541 C3.08464076,37.9834605 3.2944792,37.7728476 3.42562821,37.8518275 C3.53054743,37.8781541 3.47808782,38.1677468 3.58300704,38.2204 C3.74038586,38.2993798 4.0289137,38.5099927 4.13383292,38.3783597 C4.57973958,37.8781541 4.658429,38.5363193 4.86826743,38.5626459 C5.15679527,38.5889726 5.3404039,38.3783597 5.3666337,38.3257064 C5.52401252,37.7728476 5.73385095,37.2199888 5.76008076,36.9567227 C5.81254037,36.6934566 6.02762476,37.614888 6.13254397,38.0097871 C6.2899228,38.4573395 6.7568133,38.5363193 6.7043537,37.7201944 C6.65189409,36.9040695 6.7568133,36.2195776 6.7043537,36.0089647 C6.67812389,35.7983518 6.65189409,34.9295736 6.38959605,34.4030414 C6.23221723,34.0607955 5.89122978,33.6395697 6.0748384,32.7444649 C6.41582585,31.2965013 8.54043997,26.4260783 9.58963212,24.0566834 C10.0617686,22.8719859 5.15679527,19.7917724 4.42236076,23.5038245 L4.42236076,23.5038245 Z" fill="#EA9D7D" transform="rotate(-38 205.21772393 26.50960959)"/>
      <path d="M3.63546665,28.005675 C3.18955998,31.2438481 2.95349175,33.7185495 2.95349175,33.7185495 C2.95349175,33.7185495 2.21905724,35.3244728 2.48135528,37.3779485 C2.56004469,38.088767 4.18629253,36.4565171 4.52727998,35.3244728 C6.86173252,27.6371024 3.81907527,26.6103646 3.63546665,28.005675 L3.63546665,28.005675 Z" fill="url(#4xk1kagg4__ifvjy3oriT)" transform="rotate(-38 205.21772393 26.50960959)"/>
      <path d="M6.22172531,38.4152169 C5.93319746,38.1782774 5.76008076,37.2199888 5.68139135,36.9040695 C5.47155292,36.798763 4.84203762,36.4301905 4.6846588,35.6667188 C4.50105017,34.7452874 4.89449723,34.3240616 4.89449723,34.297735 C4.94695684,34.2450818 5.02564625,34.2450818 5.07810586,34.297735 C5.13056547,34.3503882 5.13056547,34.429368 5.07810586,34.4820213 C5.07810586,34.5083479 4.78957802,34.8505938 4.92072703,35.6140655 C5.05187605,36.3512106 5.81254037,36.6934566 5.81254037,36.6934566 C5.83877017,36.7197832 5.89122978,36.7461098 5.89122978,36.798763 C5.99614899,37.2989686 6.24795511,38.1993387 6.41582585,38.1730121 C6.64402515,38.2256653 6.49451527,37.0357025 6.49451527,36.9040695 C6.50763017,36.1405977 6.52074507,35.1138599 6.17975762,34.4556947 C5.81254037,33.7975294 5.76008076,33.4289568 5.78631056,32.9287512 C5.78631056,32.8560523 5.84502798,32.7971182 5.91745958,32.7971182 C5.98989118,32.7971182 6.0486086,32.8560523 6.0486086,32.9287512 C6.0223788,33.4026302 6.0748384,33.7185495 6.41582585,34.3240616 C6.78304311,35.0348801 6.76992821,36.1142711 6.7568133,36.9040695 L6.77779715,37.9044807 C6.77779715,38.0361137 6.75943628,38.1045629 6.75156734,38.1677468 C6.72533754,38.3520331 6.48926931,38.6152992 6.21910233,38.4125843 L6.22172531,38.4152169 Z" fill="#CC7A5E" transform="rotate(-38 205.21772393 26.50960959)"/>
      <path d="M5.13056547,36.6144767 C4.81580782,36.5618235 4.63219919,36.9830493 4.55350978,37.4832549 C4.44859056,38.0097871 4.47482037,38.4573395 4.84203762,38.5099927 C5.28794429,38.5889726 5.3404039,38.1414202 5.41909331,37.6412146 C5.47155292,37.1146823 5.55024233,36.66713 5.13056547,36.6144767 Z" fill="#EA9D7D" transform="rotate(-38 205.21772393 26.50960959)"/>
      <path d="M4.92072703,38.6416258 L4.81580782,38.6416258 C4.6846588,38.6152992 4.57973958,38.5626459 4.50105017,38.4573395 C4.36990115,38.2730532 4.34367135,37.9571339 4.42236076,37.4832549 C4.47482037,37.1673356 4.55350978,36.7461098 4.81580782,36.5881501 C4.92072703,36.5091703 5.02564625,36.4828437 5.15679527,36.5091703 C5.68139135,36.6144767 5.62893174,37.1146823 5.55024233,37.614888 L5.55024233,37.6675412 C5.49778272,38.088767 5.44532311,38.4046863 5.20925488,38.5626459 C5.13056547,38.6152992 5.02564625,38.6416258 4.92072703,38.6416258 Z M5.05187605,36.7197832 C5.02564625,36.7197832 4.97318664,36.7197832 4.94695684,36.7461098 C4.81580782,36.8514162 4.7108886,37.1146823 4.658429,37.4832549 C4.57973958,37.8781541 4.60596939,38.1414202 4.6846588,38.2730532 C4.7108886,38.3257064 4.76334821,38.3520331 4.84203762,38.3520331 C4.94695684,38.3783597 4.99941645,38.3520331 5.05187605,38.3257064 C5.20925488,38.2204 5.23548468,37.8518275 5.28794429,37.5885613 L5.28794429,37.5359081 C5.3666337,36.9830493 5.3666337,36.7724364 5.10433566,36.7197832 L5.10433566,36.7197832 L5.05187605,36.7197832 L5.05187605,36.7197832 Z" fill="#CC7A5E" transform="rotate(-38 205.21772393 26.50960959)"/>
      <path d="M4.21252233,36.4828437 C3.89776468,36.4301905 3.71415606,36.8514162 3.63546665,37.3516218 C3.53054743,37.8781541 3.55677723,38.3257064 3.92399449,38.3783597 C4.36990115,38.4573395 4.42236076,38.0097871 4.50105017,37.5095815 C4.57973958,36.9567227 4.63219919,36.5618235 4.21252233,36.4828437 Z" fill="#EA9D7D" transform="rotate(-38 205.21772393 26.50960959)"/>
      <path d="M4.0026839,38.5099927 L3.89776468,38.5099927 C3.76661566,38.4836661 3.66169645,38.4310129 3.58300704,38.3257064 C3.45185802,38.1414202 3.42562821,37.8255008 3.50431763,37.3516218 C3.55677723,37.0357025 3.63546665,36.6408034 3.89776468,36.4565171 C4.0026839,36.3775372 4.10760311,36.3512106 4.23875213,36.3775372 C4.81580782,36.4828437 4.7108886,37.0620291 4.63219919,37.5622347 C4.57973958,37.9834605 4.52727998,38.2993798 4.29121174,38.4573395 C4.21252233,38.4836661 4.13383292,38.5099927 4.0026839,38.5099927 Z M4.13383292,36.6144767 C4.10760311,36.6144767 4.05514351,36.6144767 4.0289137,36.6408034 C3.89776468,36.7461098 3.79284547,37.0093759 3.74038586,37.3779485 C3.66169645,37.7728476 3.68792625,38.0361137 3.76661566,38.1677468 C3.79284547,38.2204 3.84530508,38.2467266 3.92399449,38.2467266 C4.0289137,38.2730532 4.08137331,38.2467266 4.13383292,38.2204 C4.29121174,38.1150936 4.31744155,37.746521 4.36990115,37.4832549 C4.47482037,36.8514162 4.44859056,36.66713 4.18629253,36.6144767 L4.18629253,36.6144767 L4.13383292,36.6144767 L4.13383292,36.6144767 Z" fill="#CC7A5E" transform="rotate(-38 205.21772393 26.50960959)"/>
      <path d="M3.3469388,36.2722308 C3.08464076,36.2195776 2.90103214,36.5618235 2.87480233,37.0357025 C2.79611292,37.4832549 2.79611292,37.8518275 3.11087057,37.9044807 C3.45185802,37.9571339 3.55677723,37.614888 3.58300704,37.141009 C3.68792625,36.7197832 3.71415606,36.324884 3.3469388,36.2722308 Z" fill="#EA9D7D" transform="rotate(-38 205.21772393 26.50960959)"/>
      <path d="M3.18955998,38.0361137 L3.08464076,38.0361137 C2.56004469,37.9308073 2.69119371,37.2989686 2.74365331,37.0093759 C2.76988312,36.6408034 2.90103214,36.3512106 3.05841096,36.2195776 C3.16333018,36.1405977 3.26824939,36.1142711 3.37316861,36.1405977 L3.37316861,36.1405977 C3.50431763,36.1669244 3.60923684,36.2195776 3.68792625,36.324884 C3.81907527,36.5354969 3.79284547,36.8514162 3.74038586,37.1673356 C3.71415606,37.5359081 3.63546665,37.8255008 3.45185802,37.9571339 C3.37492172,38.0105863 3.28310638,38.0382326 3.18955998,38.0361137 L3.18955998,38.0361137 Z M3.320709,36.4038639 C3.2944792,36.4038639 3.26824939,36.4038639 3.24201959,36.4301905 C3.13710037,36.5091703 3.05841096,36.7461098 3.03218116,37.0357025 C2.92726194,37.6412146 3.03218116,37.746521 3.16333018,37.7728476 C3.24201959,37.7991742 3.2944792,37.7728476 3.320709,37.746521 C3.42562821,37.6675412 3.47808782,37.3779485 3.50431763,37.141009 C3.55677723,36.8777429 3.58300704,36.6144767 3.50431763,36.4828437 C3.45185802,36.4565171 3.42562821,36.4301905 3.320709,36.4038639 L3.320709,36.4038639 L3.320709,36.4038639 Z" fill="#CC7A5E" transform="rotate(-38 205.21772393 26.50960959)"/>
      <path d="M6.0223788,32.6654851 L3.18955998,32.2705859 C2.87480233,32.2442593 2.6387341,31.9546666 2.71742351,31.6124207 L3.11087057,28.8481265 L7.30763919,29.8748644 L6.65189409,32.2442593 C6.57320468,32.5338521 6.28467683,32.7181383 6.0223788,32.6654851 L6.0223788,32.6654851 Z" fill="url(#4xk1kagg4__nnk7453ayU)" transform="rotate(-38 205.21772393 26.50960959)"/>
      <path d="M27.1636007,3.1007011 C28.9734572,4.7856042 29.393134,9.20847482 22.8619129,13.8156317 C16.3306917,18.4227886 13.6814815,20.7132038 12.7634384,24.2409696 C11.740476,28.1109814 11.347029,29.7432313 9.37979369,30.6383361 C7.4125584,31.5334408 4.0289137,30.6383361 2.61250429,30.1907837 C1.19609489,29.7432313 -1.00720864,26.9789372 0.514119986,21.4240223 C2.00921881,15.8691074 6.36336625,11.4725634 9.79947055,8.52398294 C13.2355749,5.54907591 17.9044799,1.73171733 20.8684478,0.494366623 C24.3570117,-0.979923585 25.0652164,1.12620528 27.1636007,3.1007011 L27.1636007,3.1007011 Z" fill="url(#4xk1kagg4__p5sur7vuwV)" transform="rotate(-38 205.21772393 26.50960959)"/>
      <path d="M12.815898,24.1093366 L0.461660379,21.5293287 L0.041983517,23.9513769 C-0.0367058946,25.1887276 0.146902732,26.3997517 0.146902732,26.3997517 C0.146902732,26.3997517 1.40593332,26.6893444 5.3666337,27.4264895 L11.4257184,28.5585338 C11.4257184,28.5585338 11.740476,27.9793484 12.1863827,26.3734251 C12.4486807,25.6889332 12.815898,24.1093366 12.815898,24.1093366 L12.815898,24.1093366 Z" fill="url(#4xk1kagg4__l7maww93uW)" transform="rotate(-38 205.21772393 26.50960959)"/>
    </g>
  </g>
</svg>
